<?xml version="1.0" encoding="utf-8" standalone="no"?>
<!DOCTYPE svg PUBLIC "-//W3C//DTD SVG 1.1//EN"
  "http://www.w3.org/Graphics/SVG/1.1/DTD/svg11.dtd">
<svg height="141.958125pt" version="1.1" viewBox="0 0 266.865625 141.958125" width="266.865625pt" xmlns="http://www.w3.org/2000/svg" xmlns:xlink="http://www.w3.org/1999/xlink">
 <metadata>
  <rdf:RDF xmlns:cc="http://creativecommons.org/ns#" xmlns:dc="http://purl.org/dc/elements/1.1/" xmlns:rdf="http://www.w3.org/1999/02/22-rdf-syntax-ns#">
   <cc:Work>
    <dc:type rdf:resource="http://purl.org/dc/dcmitype/StillImage"/>
    <dc:date>2021-07-21T12:05:22.980872</dc:date>
    <dc:format>image/svg+xml</dc:format>
    <dc:creator>
     <cc:Agent>
      <dc:title>Matplotlib v3.4.2, https://matplotlib.org/</dc:title>
     </cc:Agent>
    </dc:creator>
   </cc:Work>
  </rdf:RDF>
 </metadata>
 <defs>
  <style type="text/css">*{stroke-linecap:butt;stroke-linejoin:round;}</style>
 </defs>
 <g id="figure_1">
  <g id="patch_1">
   <path d="M 0 141.958125 
L 266.865625 141.958125 
L 266.865625 0 
L 0 0 
z
" style="fill:#ffffff;"/>
  </g>
  <g id="axes_1">
   <g id="patch_2">
    <path d="M 36.465625 118.08 
L 259.665625 118.08 
L 259.665625 7.2 
L 36.465625 7.2 
z
" style="fill:#ffffff;"/>
   </g>
   <g id="matplotlib.axis_1">
    <g id="xtick_1">
     <g id="line2d_1">
      <defs>
       <path d="M 0 0 
L 0 3.5 
" id="mbbe5c1021a" style="stroke:#000000;stroke-width:0.8;"/>
      </defs>
      <g>
       <use style="stroke:#000000;stroke-width:0.8;" x="46.435261" xlink:href="#mbbe5c1021a" y="118.08"/>
      </g>
     </g>
     <g id="text_1">
      <!-- 0 -->
      <g transform="translate(43.254011 132.678438)scale(0.1 -0.1)">
       <defs>
        <path d="M 2034 4250 
Q 1547 4250 1301 3770 
Q 1056 3291 1056 2328 
Q 1056 1369 1301 889 
Q 1547 409 2034 409 
Q 2525 409 2770 889 
Q 3016 1369 3016 2328 
Q 3016 3291 2770 3770 
Q 2525 4250 2034 4250 
z
M 2034 4750 
Q 2819 4750 3233 4129 
Q 3647 3509 3647 2328 
Q 3647 1150 3233 529 
Q 2819 -91 2034 -91 
Q 1250 -91 836 529 
Q 422 1150 422 2328 
Q 422 3509 836 4129 
Q 1250 4750 2034 4750 
z
" id="DejaVuSans-30" transform="scale(0.015625)"/>
       </defs>
       <use xlink:href="#DejaVuSans-30"/>
      </g>
     </g>
    </g>
    <g id="xtick_2">
     <g id="line2d_2">
      <g>
       <use style="stroke:#000000;stroke-width:0.8;" x="101.989095" xlink:href="#mbbe5c1021a" y="118.08"/>
      </g>
     </g>
     <g id="text_2">
      <!-- 1 -->
      <g transform="translate(98.807845 132.678438)scale(0.1 -0.1)">
       <defs>
        <path d="M 794 531 
L 1825 531 
L 1825 4091 
L 703 3866 
L 703 4441 
L 1819 4666 
L 2450 4666 
L 2450 531 
L 3481 531 
L 3481 0 
L 794 0 
L 794 531 
z
" id="DejaVuSans-31" transform="scale(0.015625)"/>
       </defs>
       <use xlink:href="#DejaVuSans-31"/>
      </g>
     </g>
    </g>
    <g id="xtick_3">
     <g id="line2d_3">
      <g>
       <use style="stroke:#000000;stroke-width:0.8;" x="157.54293" xlink:href="#mbbe5c1021a" y="118.08"/>
      </g>
     </g>
     <g id="text_3">
      <!-- 2 -->
      <g transform="translate(154.36168 132.678438)scale(0.1 -0.1)">
       <defs>
        <path d="M 1228 531 
L 3431 531 
L 3431 0 
L 469 0 
L 469 531 
Q 828 903 1448 1529 
Q 2069 2156 2228 2338 
Q 2531 2678 2651 2914 
Q 2772 3150 2772 3378 
Q 2772 3750 2511 3984 
Q 2250 4219 1831 4219 
Q 1534 4219 1204 4116 
Q 875 4013 500 3803 
L 500 4441 
Q 881 4594 1212 4672 
Q 1544 4750 1819 4750 
Q 2544 4750 2975 4387 
Q 3406 4025 3406 3419 
Q 3406 3131 3298 2873 
Q 3191 2616 2906 2266 
Q 2828 2175 2409 1742 
Q 1991 1309 1228 531 
z
" id="DejaVuSans-32" transform="scale(0.015625)"/>
       </defs>
       <use xlink:href="#DejaVuSans-32"/>
      </g>
     </g>
    </g>
    <g id="xtick_4">
     <g id="line2d_4">
      <g>
       <use style="stroke:#000000;stroke-width:0.8;" x="213.096764" xlink:href="#mbbe5c1021a" y="118.08"/>
      </g>
     </g>
     <g id="text_4">
      <!-- 3 -->
      <g transform="translate(209.915514 132.678438)scale(0.1 -0.1)">
       <defs>
        <path d="M 2597 2516 
Q 3050 2419 3304 2112 
Q 3559 1806 3559 1356 
Q 3559 666 3084 287 
Q 2609 -91 1734 -91 
Q 1441 -91 1130 -33 
Q 819 25 488 141 
L 488 750 
Q 750 597 1062 519 
Q 1375 441 1716 441 
Q 2309 441 2620 675 
Q 2931 909 2931 1356 
Q 2931 1769 2642 2001 
Q 2353 2234 1838 2234 
L 1294 2234 
L 1294 2753 
L 1863 2753 
Q 2328 2753 2575 2939 
Q 2822 3125 2822 3475 
Q 2822 3834 2567 4026 
Q 2313 4219 1838 4219 
Q 1578 4219 1281 4162 
Q 984 4106 628 3988 
L 628 4550 
Q 988 4650 1302 4700 
Q 1616 4750 1894 4750 
Q 2613 4750 3031 4423 
Q 3450 4097 3450 3541 
Q 3450 3153 3228 2886 
Q 3006 2619 2597 2516 
z
" id="DejaVuSans-33" transform="scale(0.015625)"/>
       </defs>
       <use xlink:href="#DejaVuSans-33"/>
      </g>
     </g>
    </g>
   </g>
   <g id="matplotlib.axis_2">
    <g id="ytick_1">
     <g id="line2d_5">
      <defs>
       <path d="M 0 0 
L -3.5 0 
" id="m9ed674d351" style="stroke:#000000;stroke-width:0.8;"/>
      </defs>
      <g>
       <use style="stroke:#000000;stroke-width:0.8;" x="36.465625" xlink:href="#m9ed674d351" y="118.08"/>
      </g>
     </g>
     <g id="text_5">
      <!-- 0.00 -->
      <g transform="translate(7.2 121.879219)scale(0.1 -0.1)">
       <defs>
        <path d="M 684 794 
L 1344 794 
L 1344 0 
L 684 0 
L 684 794 
z
" id="DejaVuSans-2e" transform="scale(0.015625)"/>
       </defs>
       <use xlink:href="#DejaVuSans-30"/>
       <use x="63.623047" xlink:href="#DejaVuSans-2e"/>
       <use x="95.410156" xlink:href="#DejaVuSans-30"/>
       <use x="159.033203" xlink:href="#DejaVuSans-30"/>
      </g>
     </g>
    </g>
    <g id="ytick_2">
     <g id="line2d_6">
      <g>
       <use style="stroke:#000000;stroke-width:0.8;" x="36.465625" xlink:href="#m9ed674d351" y="95.607561"/>
      </g>
     </g>
     <g id="text_6">
      <!-- 0.25 -->
      <g transform="translate(7.2 99.40678)scale(0.1 -0.1)">
       <defs>
        <path d="M 691 4666 
L 3169 4666 
L 3169 4134 
L 1269 4134 
L 1269 2991 
Q 1406 3038 1543 3061 
Q 1681 3084 1819 3084 
Q 2600 3084 3056 2656 
Q 3513 2228 3513 1497 
Q 3513 744 3044 326 
Q 2575 -91 1722 -91 
Q 1428 -91 1123 -41 
Q 819 9 494 109 
L 494 744 
Q 775 591 1075 516 
Q 1375 441 1709 441 
Q 2250 441 2565 725 
Q 2881 1009 2881 1497 
Q 2881 1984 2565 2268 
Q 2250 2553 1709 2553 
Q 1456 2553 1204 2497 
Q 953 2441 691 2322 
L 691 4666 
z
" id="DejaVuSans-35" transform="scale(0.015625)"/>
       </defs>
       <use xlink:href="#DejaVuSans-30"/>
       <use x="63.623047" xlink:href="#DejaVuSans-2e"/>
       <use x="95.410156" xlink:href="#DejaVuSans-32"/>
       <use x="159.033203" xlink:href="#DejaVuSans-35"/>
      </g>
     </g>
    </g>
    <g id="ytick_3">
     <g id="line2d_7">
      <g>
       <use style="stroke:#000000;stroke-width:0.8;" x="36.465625" xlink:href="#m9ed674d351" y="73.135123"/>
      </g>
     </g>
     <g id="text_7">
      <!-- 0.50 -->
      <g transform="translate(7.2 76.934342)scale(0.1 -0.1)">
       <use xlink:href="#DejaVuSans-30"/>
       <use x="63.623047" xlink:href="#DejaVuSans-2e"/>
       <use x="95.410156" xlink:href="#DejaVuSans-35"/>
       <use x="159.033203" xlink:href="#DejaVuSans-30"/>
      </g>
     </g>
    </g>
    <g id="ytick_4">
     <g id="line2d_8">
      <g>
       <use style="stroke:#000000;stroke-width:0.8;" x="36.465625" xlink:href="#m9ed674d351" y="50.662684"/>
      </g>
     </g>
     <g id="text_8">
      <!-- 0.75 -->
      <g transform="translate(7.2 54.461903)scale(0.1 -0.1)">
       <defs>
        <path d="M 525 4666 
L 3525 4666 
L 3525 4397 
L 1831 0 
L 1172 0 
L 2766 4134 
L 525 4134 
L 525 4666 
z
" id="DejaVuSans-37" transform="scale(0.015625)"/>
       </defs>
       <use xlink:href="#DejaVuSans-30"/>
       <use x="63.623047" xlink:href="#DejaVuSans-2e"/>
       <use x="95.410156" xlink:href="#DejaVuSans-37"/>
       <use x="159.033203" xlink:href="#DejaVuSans-35"/>
      </g>
     </g>
    </g>
    <g id="ytick_5">
     <g id="line2d_9">
      <g>
       <use style="stroke:#000000;stroke-width:0.8;" x="36.465625" xlink:href="#m9ed674d351" y="28.190246"/>
      </g>
     </g>
     <g id="text_9">
      <!-- 1.00 -->
      <g transform="translate(7.2 31.989465)scale(0.1 -0.1)">
       <use xlink:href="#DejaVuSans-31"/>
       <use x="63.623047" xlink:href="#DejaVuSans-2e"/>
       <use x="95.410156" xlink:href="#DejaVuSans-30"/>
       <use x="159.033203" xlink:href="#DejaVuSans-30"/>
      </g>
     </g>
    </g>
   </g>
   <g id="patch_3">
    <path clip-path="url(#paeddf72047)" d="M 46.61108 118.08 
L 46.61108 105.774685 
L 48.64017 105.774685 
L 48.64017 102.698356 
L 50.669261 102.698356 
L 50.669261 100.237293 
L 52.698352 100.237293 
L 52.698352 103.313622 
L 54.727443 103.313622 
L 54.727443 102.698356 
L 56.756534 102.698356 
L 56.756534 103.928888 
L 58.785625 103.928888 
L 58.785625 101.467825 
L 60.814716 101.467825 
L 60.814716 105.159419 
L 64.872898 105.159419 
L 64.872898 102.083091 
L 66.901989 102.083091 
L 66.901989 97.160965 
L 68.93108 97.160965 
L 68.93108 103.928888 
L 70.96017 103.928888 
L 70.96017 102.698356 
L 72.989261 102.698356 
L 72.989261 106.389951 
L 75.018352 106.389951 
L 75.018352 102.698356 
L 77.047443 102.698356 
L 77.047443 100.852559 
L 79.076534 100.852559 
L 79.076534 103.313622 
L 81.105625 103.313622 
L 81.105625 109.46628 
L 83.134716 109.46628 
L 83.134716 98.391496 
L 85.163807 98.391496 
L 85.163807 105.159419 
L 87.192898 105.159419 
L 87.192898 100.852559 
L 89.221989 100.852559 
L 89.221989 105.159419 
L 91.25108 105.159419 
L 91.25108 103.928888 
L 93.28017 103.928888 
L 93.28017 105.159419 
L 95.309261 105.159419 
L 95.309261 100.237293 
L 97.338352 100.237293 
L 97.338352 107.620482 
L 99.367443 107.620482 
L 99.367443 102.698356 
L 101.396534 102.698356 
L 101.396534 98.391496 
L 103.425625 98.391496 
L 103.425625 106.389951 
L 105.454716 106.389951 
L 105.454716 102.698356 
L 107.483807 102.698356 
L 107.483807 108.235748 
L 109.512898 108.235748 
L 109.512898 99.622028 
L 111.541989 99.622028 
L 111.541989 102.698356 
L 113.57108 102.698356 
L 113.57108 101.467825 
L 115.60017 101.467825 
L 115.60017 102.083091 
L 117.629261 102.083091 
L 117.629261 99.622028 
L 119.658352 99.622028 
L 119.658352 107.620482 
L 121.687443 107.620482 
L 121.687443 99.006762 
L 123.716534 99.006762 
L 123.716534 102.083091 
L 125.745625 102.083091 
L 125.745625 99.622028 
L 127.774716 99.622028 
L 127.774716 105.774685 
L 129.803807 105.774685 
L 129.803807 108.235748 
L 131.832898 108.235748 
L 131.832898 104.544154 
L 133.861989 104.544154 
L 133.861989 102.083091 
L 135.89108 102.083091 
L 135.89108 102.698356 
L 137.92017 102.698356 
L 137.92017 105.774685 
L 139.949261 105.774685 
L 139.949261 104.544154 
L 144.007443 104.544154 
L 144.007443 97.77623 
L 146.036534 97.77623 
L 146.036534 97.160965 
L 148.065625 97.160965 
L 148.065625 102.083091 
L 150.094716 102.083091 
L 150.094716 103.313622 
L 152.123807 103.313622 
L 152.123807 98.391496 
L 154.152898 98.391496 
L 154.152898 102.083091 
L 156.181989 102.083091 
L 156.181989 106.389951 
L 158.21108 106.389951 
L 158.21108 105.159419 
L 160.24017 105.159419 
L 160.24017 106.389951 
L 162.269261 106.389951 
L 162.269261 103.928888 
L 164.298352 103.928888 
L 164.298352 96.545699 
L 166.327443 96.545699 
L 166.327443 100.237293 
L 168.356534 100.237293 
L 168.356534 105.159419 
L 170.385625 105.159419 
L 170.385625 103.313622 
L 172.414716 103.313622 
L 172.414716 96.545699 
L 174.443807 96.545699 
L 174.443807 100.237293 
L 176.472898 100.237293 
L 176.472898 106.389951 
L 178.501989 106.389951 
L 178.501989 103.313622 
L 180.53108 103.313622 
L 180.53108 102.083091 
L 182.56017 102.083091 
L 182.56017 100.237293 
L 184.589261 100.237293 
L 184.589261 105.159419 
L 186.618352 105.159419 
L 186.618352 97.77623 
L 188.647443 97.77623 
L 188.647443 92.238839 
L 190.676534 92.238839 
L 190.676534 87.931978 
L 192.705625 87.931978 
L 192.705625 81.164055 
L 194.734716 81.164055 
L 194.734716 71.319803 
L 196.763807 71.319803 
L 196.763807 62.706083 
L 198.792898 62.706083 
L 198.792898 70.089272 
L 200.821989 70.089272 
L 200.821989 58.399223 
L 202.85108 58.399223 
L 202.85108 41.787048 
L 204.88017 41.787048 
L 204.88017 31.942796 
L 206.909261 31.942796 
L 206.909261 23.329075 
L 208.938352 23.329075 
L 208.938352 15.33062 
L 210.967443 15.33062 
L 210.967443 13.484823 
L 212.996534 13.484823 
L 212.996534 30.096998 
L 215.025625 30.096998 
L 215.025625 26.405404 
L 217.054716 26.405404 
L 217.054716 44.863376 
L 219.083807 44.863376 
L 219.083807 33.173327 
L 221.112898 33.173327 
L 221.112898 58.399223 
L 223.141989 58.399223 
L 223.141989 71.319803 
L 225.17108 71.319803 
L 225.17108 74.396132 
L 227.20017 74.396132 
L 227.20017 80.54879 
L 229.229261 80.54879 
L 229.229261 86.701447 
L 231.258352 86.701447 
L 231.258352 101.467825 
L 233.287443 101.467825 
L 233.287443 102.083091 
L 235.316534 102.083091 
L 235.316534 104.544154 
L 237.345625 104.544154 
L 237.345625 111.312077 
L 239.374716 111.312077 
L 239.374716 111.927343 
L 241.403807 111.927343 
L 241.403807 113.77314 
L 243.432898 113.77314 
L 243.432898 116.234203 
L 245.461989 116.234203 
L 245.461989 117.464734 
L 247.49108 117.464734 
L 247.49108 116.849469 
L 249.52017 116.849469 
L 249.52017 118.08 
L 249.52017 118.08 
" style="fill:none;stroke:#1f77b4;stroke-linejoin:miter;"/>
   </g>
   <g id="patch_4">
    <path clip-path="url(#paeddf72047)" d="M 47.625625 118.08 
L 47.625625 97.475122 
L 51.503325 97.475122 
L 51.503325 107.777561 
L 53.442174 107.777561 
L 53.442174 112.92878 
L 55.381024 112.92878 
L 55.381024 97.475122 
L 59.258724 97.475122 
L 59.258724 110.353171 
L 63.136424 110.353171 
L 63.136424 94.899512 
L 65.075273 94.899512 
L 65.075273 100.050732 
L 67.014123 100.050732 
L 67.014123 105.201951 
L 68.952973 105.201951 
L 68.952973 110.353171 
L 70.891823 110.353171 
L 70.891823 100.050732 
L 72.830673 100.050732 
L 72.830673 94.899512 
L 76.708372 94.899512 
L 76.708372 112.92878 
L 78.647222 112.92878 
L 78.647222 102.626341 
L 80.586072 102.626341 
L 80.586072 110.353171 
L 82.524922 110.353171 
L 82.524922 112.92878 
L 84.463772 112.92878 
L 84.463772 107.777561 
L 86.402622 107.777561 
L 86.402622 97.475122 
L 88.341471 97.475122 
L 88.341471 118.08 
L 90.280321 118.08 
L 90.280321 110.353171 
L 92.219171 110.353171 
L 92.219171 115.50439 
L 94.158021 115.50439 
L 94.158021 82.021463 
L 96.096871 82.021463 
L 96.096871 105.201951 
L 98.03572 105.201951 
L 98.03572 110.353171 
L 99.97457 110.353171 
L 99.97457 97.475122 
L 101.91342 97.475122 
L 101.91342 105.201951 
L 105.79112 105.201951 
L 105.79112 112.92878 
L 107.72997 112.92878 
L 107.72997 100.050732 
L 109.668819 100.050732 
L 109.668819 97.475122 
L 111.607669 97.475122 
L 111.607669 105.201951 
L 113.546519 105.201951 
L 113.546519 112.92878 
L 115.485369 112.92878 
L 115.485369 102.626341 
L 119.363069 102.626341 
L 119.363069 100.050732 
L 121.301918 100.050732 
L 121.301918 105.201951 
L 123.240768 105.201951 
L 123.240768 89.748293 
L 125.179618 89.748293 
L 125.179618 100.050732 
L 129.057318 100.050732 
L 129.057318 105.201951 
L 132.935017 105.201951 
L 132.935017 110.353171 
L 134.873867 110.353171 
L 134.873867 92.323902 
L 136.812717 92.323902 
L 136.812717 107.777561 
L 138.751567 107.777561 
L 138.751567 112.92878 
L 140.690417 112.92878 
L 140.690417 105.201951 
L 142.629266 105.201951 
L 142.629266 94.899512 
L 144.568116 94.899512 
L 144.568116 102.626341 
L 146.506966 102.626341 
L 146.506966 92.323902 
L 148.445816 92.323902 
L 148.445816 97.475122 
L 150.384666 97.475122 
L 150.384666 107.777561 
L 152.323516 107.777561 
L 152.323516 97.475122 
L 154.262365 97.475122 
L 154.262365 105.201951 
L 156.201215 105.201951 
L 156.201215 110.353171 
L 158.140065 110.353171 
L 158.140065 107.777561 
L 162.017765 107.777561 
L 162.017765 92.323902 
L 163.956615 92.323902 
L 163.956615 94.899512 
L 165.895464 94.899512 
L 165.895464 102.626341 
L 167.834314 102.626341 
L 167.834314 115.50439 
L 169.773164 115.50439 
L 169.773164 112.92878 
L 171.712014 112.92878 
L 171.712014 102.626341 
L 173.650864 102.626341 
L 173.650864 100.050732 
L 175.589713 100.050732 
L 175.589713 105.201951 
L 179.467413 105.201951 
L 179.467413 82.021463 
L 181.406263 82.021463 
L 181.406263 105.201951 
L 183.345113 105.201951 
L 183.345113 107.777561 
L 185.283963 107.777561 
L 185.283963 100.050732 
L 187.222812 100.050732 
L 187.222812 94.899512 
L 189.161662 94.899512 
L 189.161662 89.748293 
L 191.100512 89.748293 
L 191.100512 87.172683 
L 193.039362 87.172683 
L 193.039362 61.416585 
L 194.978212 61.416585 
L 194.978212 58.840976 
L 196.917062 58.840976 
L 196.917062 71.719024 
L 198.855911 71.719024 
L 198.855911 56.265366 
L 200.794761 56.265366 
L 200.794761 38.236098 
L 202.733611 38.236098 
L 202.733611 43.387317 
L 204.672461 43.387317 
L 204.672461 27.933659 
L 206.611311 27.933659 
L 206.611311 15.05561 
L 208.55016 15.05561 
L 208.55016 12.48 
L 210.48901 12.48 
L 210.48901 22.782439 
L 212.42786 22.782439 
L 212.42786 33.084878 
L 214.36671 33.084878 
L 214.36671 27.933659 
L 216.30556 27.933659 
L 216.30556 22.782439 
L 218.24441 22.782439 
L 218.24441 27.933659 
L 220.183259 27.933659 
L 220.183259 45.962927 
L 222.122109 45.962927 
L 222.122109 76.870244 
L 224.060959 76.870244 
L 224.060959 58.840976 
L 225.999809 58.840976 
L 225.999809 76.870244 
L 227.938659 76.870244 
L 227.938659 82.021463 
L 229.877509 82.021463 
L 229.877509 112.92878 
L 231.816358 112.92878 
L 231.816358 97.475122 
L 233.755208 97.475122 
L 233.755208 100.050732 
L 235.694058 100.050732 
L 235.694058 118.08 
L 237.632908 118.08 
L 237.632908 115.50439 
L 239.571758 115.50439 
L 239.571758 112.92878 
L 241.510608 112.92878 
L 241.510608 118.08 
L 241.510608 118.08 
" style="fill:none;stroke:#ff7f0e;stroke-linejoin:miter;"/>
   </g>
   <g id="patch_5">
    <path d="M 36.465625 118.08 
L 36.465625 7.2 
" style="fill:none;stroke:#000000;stroke-linecap:square;stroke-linejoin:miter;stroke-width:0.8;"/>
   </g>
   <g id="patch_6">
    <path d="M 259.665625 118.08 
L 259.665625 7.2 
" style="fill:none;stroke:#000000;stroke-linecap:square;stroke-linejoin:miter;stroke-width:0.8;"/>
   </g>
   <g id="patch_7">
    <path d="M 36.465625 118.08 
L 259.665625 118.08 
" style="fill:none;stroke:#000000;stroke-linecap:square;stroke-linejoin:miter;stroke-width:0.8;"/>
   </g>
   <g id="patch_8">
    <path d="M 36.465625 7.2 
L 259.665625 7.2 
" style="fill:none;stroke:#000000;stroke-linecap:square;stroke-linejoin:miter;stroke-width:0.8;"/>
   </g>
  </g>
 </g>
 <defs>
  <clipPath id="paeddf72047">
   <rect height="110.88" width="223.2" x="36.465625" y="7.2"/>
  </clipPath>
 </defs>
</svg>
