<?xml version="1.0" encoding="utf-8" standalone="no"?>
<!DOCTYPE svg PUBLIC "-//W3C//DTD SVG 1.1//EN"
  "http://www.w3.org/Graphics/SVG/1.1/DTD/svg11.dtd">
<svg height="141.400312pt" version="1.1" viewBox="0 0 261.834513 141.400312" width="261.834513pt" xmlns="http://www.w3.org/2000/svg" xmlns:xlink="http://www.w3.org/1999/xlink">
 <metadata>
  <rdf:RDF xmlns:cc="http://creativecommons.org/ns#" xmlns:dc="http://purl.org/dc/elements/1.1/" xmlns:rdf="http://www.w3.org/1999/02/22-rdf-syntax-ns#">
   <cc:Work>
    <dc:type rdf:resource="http://purl.org/dc/dcmitype/StillImage"/>
    <dc:date>2021-09-06T13:26:40.216058</dc:date>
    <dc:format>image/svg+xml</dc:format>
    <dc:creator>
     <cc:Agent>
      <dc:title>Matplotlib v3.4.2, https://matplotlib.org/</dc:title>
     </cc:Agent>
    </dc:creator>
   </cc:Work>
  </rdf:RDF>
 </metadata>
 <defs>
  <style type="text/css">*{stroke-linecap:butt;stroke-linejoin:round;}</style>
 </defs>
 <g id="figure_1">
  <g id="patch_1">
   <path d="M 0 141.400312 
L 261.834513 141.400312 
L 261.834513 0 
L 0 0 
z
" style="fill:#ffffff;"/>
  </g>
  <g id="axes_1">
   <g id="patch_2">
    <path d="M 29.128125 119.83 
L 252.328125 119.83 
L 252.328125 8.95 
L 29.128125 8.95 
z
" style="fill:#ffffff;"/>
   </g>
   <g id="matplotlib.axis_1">
    <g id="xtick_1">
     <g id="line2d_1">
      <defs>
       <path d="M 0 1.75 
L 0 -1.75 
" id="m9ef77e6613" style="stroke:#000000;stroke-width:0.8;"/>
      </defs>
      <g>
       <use style="stroke:#000000;stroke-width:0.8;" x="39.051037" xlink:href="#m9ef77e6613" y="119.83"/>
      </g>
     </g>
     <g id="line2d_2">
      <g>
       <use style="stroke:#000000;stroke-width:0.8;" x="39.051037" xlink:href="#m9ef77e6613" y="8.95"/>
      </g>
     </g>
     <g id="text_1">
      <!-- 0 -->
      <g transform="translate(36.271349 132.220625)scale(0.1 -0.1)">
       <defs>
        <path d="M 269 2227 
C 269 1229 358 -77 1779 -77 
C 3200 -77 3290 1229 3290 2227 
C 3290 3232 3200 4538 1779 4538 
C 358 4538 269 3232 269 2227 
z
M 845 2234 
C 845 2906 851 4058 1779 4058 
C 2707 4058 2714 2906 2714 2234 
C 2714 1555 2707 403 1779 403 
C 851 403 845 1555 845 2234 
z
" id="HelveticaNeue-Roman-30" transform="scale(0.015625)"/>
       </defs>
       <use xlink:href="#HelveticaNeue-Roman-30"/>
      </g>
     </g>
    </g>
    <g id="xtick_2">
     <g id="line2d_3">
      <g>
       <use style="stroke:#000000;stroke-width:0.8;" x="92.251984" xlink:href="#m9ef77e6613" y="119.83"/>
      </g>
     </g>
     <g id="line2d_4">
      <g>
       <use style="stroke:#000000;stroke-width:0.8;" x="92.251984" xlink:href="#m9ef77e6613" y="8.95"/>
      </g>
     </g>
     <g id="text_2">
      <!-- 1 -->
      <g transform="translate(89.472296 132.220625)scale(0.1 -0.1)">
       <defs>
        <path d="M 2278 4538 
L 1862 4538 
C 1741 3853 1178 3686 557 3686 
L 557 3251 
L 1734 3251 
L 1734 0 
L 2278 0 
L 2278 4538 
z
" id="HelveticaNeue-Roman-31" transform="scale(0.015625)"/>
       </defs>
       <use xlink:href="#HelveticaNeue-Roman-31"/>
      </g>
     </g>
    </g>
    <g id="xtick_3">
     <g id="line2d_5">
      <g>
       <use style="stroke:#000000;stroke-width:0.8;" x="145.452931" xlink:href="#m9ef77e6613" y="119.83"/>
      </g>
     </g>
     <g id="line2d_6">
      <g>
       <use style="stroke:#000000;stroke-width:0.8;" x="145.452931" xlink:href="#m9ef77e6613" y="8.95"/>
      </g>
     </g>
     <g id="text_3">
      <!-- 2 -->
      <g transform="translate(142.673244 132.220625)scale(0.1 -0.1)">
       <defs>
        <path d="M 826 2931 
C 806 3475 1075 4058 1709 4058 
C 2189 4058 2586 3731 2586 3238 
C 2586 2611 2195 2330 1427 1856 
C 787 1459 243 1075 154 0 
L 3117 0 
L 3117 480 
L 787 480 
C 896 1043 1491 1331 2061 1677 
C 2624 2029 3162 2432 3162 3232 
C 3162 4077 2534 4538 1741 4538 
C 781 4538 237 3853 282 2931 
L 826 2931 
z
" id="HelveticaNeue-Roman-32" transform="scale(0.015625)"/>
       </defs>
       <use xlink:href="#HelveticaNeue-Roman-32"/>
      </g>
     </g>
    </g>
    <g id="xtick_4">
     <g id="line2d_7">
      <g>
       <use style="stroke:#000000;stroke-width:0.8;" x="198.653878" xlink:href="#m9ef77e6613" y="119.83"/>
      </g>
     </g>
     <g id="line2d_8">
      <g>
       <use style="stroke:#000000;stroke-width:0.8;" x="198.653878" xlink:href="#m9ef77e6613" y="8.95"/>
      </g>
     </g>
     <g id="text_4">
      <!-- 3 -->
      <g transform="translate(195.874191 132.220625)scale(0.1 -0.1)">
       <defs>
        <path d="M 1395 2131 
C 1498 2144 1613 2150 1722 2150 
C 2259 2150 2688 1850 2688 1280 
C 2688 730 2234 403 1702 403 
C 1082 403 755 813 736 1402 
L 192 1402 
C 173 467 781 -77 1702 -77 
C 2554 -77 3264 397 3264 1306 
C 3264 1850 2995 2285 2445 2406 
L 2445 2419 
C 2790 2579 3072 2925 3072 3322 
C 3072 4160 2477 4538 1690 4538 
C 781 4538 320 3936 288 3072 
L 832 3072 
C 838 3603 1094 4058 1690 4058 
C 2150 4058 2496 3802 2496 3328 
C 2496 2835 2093 2586 1632 2586 
C 1555 2586 1478 2586 1395 2592 
L 1395 2131 
z
" id="HelveticaNeue-Roman-33" transform="scale(0.015625)"/>
       </defs>
       <use xlink:href="#HelveticaNeue-Roman-33"/>
      </g>
     </g>
    </g>
    <g id="xtick_5">
     <g id="line2d_9">
      <g>
       <use style="stroke:#000000;stroke-width:0.8;" x="251.854826" xlink:href="#m9ef77e6613" y="119.83"/>
      </g>
     </g>
     <g id="line2d_10">
      <g>
       <use style="stroke:#000000;stroke-width:0.8;" x="251.854826" xlink:href="#m9ef77e6613" y="8.95"/>
      </g>
     </g>
     <g id="text_5">
      <!-- 4 -->
      <g transform="translate(249.075138 132.220625)scale(0.1 -0.1)">
       <defs>
        <path d="M 2682 4538 
L 2246 4538 
L 179 1587 
L 179 1062 
L 2170 1062 
L 2170 0 
L 2682 0 
L 2682 1062 
L 3296 1062 
L 3296 1542 
L 2682 1542 
L 2682 4538 
z
M 646 1542 
L 2157 3763 
L 2170 3763 
L 2170 1542 
L 646 1542 
z
" id="HelveticaNeue-Roman-34" transform="scale(0.015625)"/>
       </defs>
       <use xlink:href="#HelveticaNeue-Roman-34"/>
      </g>
     </g>
    </g>
   </g>
   <g id="matplotlib.axis_2">
    <g id="ytick_1">
     <g id="line2d_11">
      <defs>
       <path d="M 1.75 0 
L -1.75 -0 
" id="m94842b77bc" style="stroke:#000000;stroke-width:0.8;"/>
      </defs>
      <g>
       <use style="stroke:#000000;stroke-width:0.8;" x="29.128125" xlink:href="#m94842b77bc" y="119.83"/>
      </g>
     </g>
     <g id="line2d_12">
      <g>
       <use style="stroke:#000000;stroke-width:0.8;" x="252.328125" xlink:href="#m94842b77bc" y="119.83"/>
      </g>
     </g>
     <g id="text_6">
      <!-- 0 -->
      <g transform="translate(18.31875 123.400312)scale(0.1 -0.1)">
       <use xlink:href="#HelveticaNeue-Roman-30"/>
      </g>
     </g>
    </g>
    <g id="ytick_2">
     <g id="line2d_13">
      <g>
       <use style="stroke:#000000;stroke-width:0.8;" x="29.128125" xlink:href="#m94842b77bc" y="90.332793"/>
      </g>
     </g>
     <g id="line2d_14">
      <g>
       <use style="stroke:#000000;stroke-width:0.8;" x="252.328125" xlink:href="#m94842b77bc" y="90.332793"/>
      </g>
     </g>
     <g id="text_7">
      <!-- 50 -->
      <g transform="translate(12.759375 93.903106)scale(0.1 -0.1)">
       <defs>
        <path d="M 3008 4461 
L 768 4461 
L 346 2106 
L 813 2080 
C 1024 2336 1312 2509 1658 2509 
C 2266 2509 2682 2080 2682 1478 
C 2682 755 2240 403 1722 403 
C 1178 403 800 755 768 1222 
L 224 1222 
C 243 403 883 -77 1670 -77 
C 2726 -77 3258 666 3258 1434 
C 3258 2470 2598 2989 1792 2989 
C 1485 2989 1146 2886 947 2662 
L 934 2675 
L 1178 3981 
L 3008 3981 
L 3008 4461 
z
" id="HelveticaNeue-Roman-35" transform="scale(0.015625)"/>
       </defs>
       <use xlink:href="#HelveticaNeue-Roman-35"/>
       <use x="55.599991" xlink:href="#HelveticaNeue-Roman-30"/>
      </g>
     </g>
    </g>
    <g id="ytick_3">
     <g id="line2d_15">
      <g>
       <use style="stroke:#000000;stroke-width:0.8;" x="29.128125" xlink:href="#m94842b77bc" y="60.835587"/>
      </g>
     </g>
     <g id="line2d_16">
      <g>
       <use style="stroke:#000000;stroke-width:0.8;" x="252.328125" xlink:href="#m94842b77bc" y="60.835587"/>
      </g>
     </g>
     <g id="text_8">
      <!-- 100 -->
      <g transform="translate(7.2 64.405899)scale(0.1 -0.1)">
       <use xlink:href="#HelveticaNeue-Roman-31"/>
       <use x="55.599991" xlink:href="#HelveticaNeue-Roman-30"/>
       <use x="111.199982" xlink:href="#HelveticaNeue-Roman-30"/>
      </g>
     </g>
    </g>
    <g id="ytick_4">
     <g id="line2d_17">
      <g>
       <use style="stroke:#000000;stroke-width:0.8;" x="29.128125" xlink:href="#m94842b77bc" y="31.33838"/>
      </g>
     </g>
     <g id="line2d_18">
      <g>
       <use style="stroke:#000000;stroke-width:0.8;" x="252.328125" xlink:href="#m94842b77bc" y="31.33838"/>
      </g>
     </g>
     <g id="text_9">
      <!-- 150 -->
      <g transform="translate(7.2 34.908692)scale(0.1 -0.1)">
       <use xlink:href="#HelveticaNeue-Roman-31"/>
       <use x="55.599991" xlink:href="#HelveticaNeue-Roman-35"/>
       <use x="111.199982" xlink:href="#HelveticaNeue-Roman-30"/>
      </g>
     </g>
    </g>
   </g>
   <g id="patch_3">
    <path clip-path="url(#p7040cfee0a)" d="M 39.27358 119.83 
L 39.27358 105.671341 
L 41.30267 105.671341 
L 41.30267 103.311564 
L 43.331761 103.311564 
L 43.331761 102.72162 
L 45.360852 102.72162 
L 45.360852 106.261285 
L 49.419034 106.261285 
L 49.419034 102.72162 
L 51.448125 102.72162 
L 51.448125 108.031117 
L 53.477216 108.031117 
L 53.477216 102.131676 
L 55.506307 102.131676 
L 55.506307 103.311564 
L 57.535398 103.311564 
L 57.535398 105.081397 
L 59.564489 105.081397 
L 59.564489 105.671341 
L 61.59358 105.671341 
L 61.59358 102.72162 
L 63.62267 102.72162 
L 63.62267 104.491453 
L 67.680852 104.491453 
L 67.680852 102.72162 
L 69.709943 102.72162 
L 69.709943 109.211006 
L 71.739034 109.211006 
L 71.739034 103.311564 
L 73.768125 103.311564 
L 73.768125 100.951788 
L 75.797216 100.951788 
L 75.797216 104.491453 
L 77.826307 104.491453 
L 77.826307 102.72162 
L 79.855398 102.72162 
L 79.855398 105.671341 
L 81.884489 105.671341 
L 81.884489 101.541732 
L 83.91358 101.541732 
L 83.91358 107.441173 
L 85.94267 107.441173 
L 85.94267 108.621061 
L 87.971761 108.621061 
L 87.971761 103.901508 
L 90.000852 103.901508 
L 90.000852 106.851229 
L 94.059034 106.851229 
L 94.059034 99.771899 
L 96.088125 99.771899 
L 96.088125 101.541732 
L 98.117216 101.541732 
L 98.117216 103.311564 
L 100.146307 103.311564 
L 100.146307 102.72162 
L 102.175398 102.72162 
L 102.175398 103.901508 
L 104.204489 103.901508 
L 104.204489 102.72162 
L 106.23358 102.72162 
L 106.23358 108.621061 
L 108.26267 108.621061 
L 108.26267 107.441173 
L 110.291761 107.441173 
L 110.291761 109.211006 
L 112.320852 109.211006 
L 112.320852 106.851229 
L 114.349943 106.851229 
L 114.349943 107.441173 
L 116.379034 107.441173 
L 116.379034 110.980838 
L 118.408125 110.980838 
L 118.408125 102.131676 
L 120.437216 102.131676 
L 120.437216 103.901508 
L 122.466307 103.901508 
L 122.466307 101.541732 
L 124.495398 101.541732 
L 124.495398 106.261285 
L 126.524489 106.261285 
L 126.524489 100.951788 
L 128.55358 100.951788 
L 128.55358 102.72162 
L 130.58267 102.72162 
L 130.58267 103.311564 
L 132.611761 103.311564 
L 132.611761 106.261285 
L 134.640852 106.261285 
L 134.640852 112.75067 
L 136.669943 112.75067 
L 136.669943 109.211006 
L 138.699034 109.211006 
L 138.699034 108.621061 
L 140.728125 108.621061 
L 140.728125 103.311564 
L 142.757216 103.311564 
L 142.757216 100.951788 
L 144.786307 100.951788 
L 144.786307 106.851229 
L 146.815398 106.851229 
L 146.815398 102.131676 
L 148.844489 102.131676 
L 148.844489 102.72162 
L 150.87358 102.72162 
L 150.87358 100.951788 
L 152.90267 100.951788 
L 152.90267 108.031117 
L 154.931761 108.031117 
L 154.931761 106.261285 
L 156.960852 106.261285 
L 156.960852 102.131676 
L 158.989943 102.131676 
L 158.989943 103.901508 
L 161.019034 103.901508 
L 161.019034 105.081397 
L 163.048125 105.081397 
L 163.048125 108.621061 
L 165.077216 108.621061 
L 165.077216 106.851229 
L 167.106307 106.851229 
L 167.106307 105.081397 
L 169.135398 105.081397 
L 169.135398 99.181955 
L 171.164489 99.181955 
L 171.164489 99.771899 
L 173.19358 99.771899 
L 173.19358 97.412123 
L 175.22267 97.412123 
L 175.22267 88.562961 
L 177.251761 88.562961 
L 177.251761 94.462402 
L 179.280852 94.462402 
L 179.280852 87.383073 
L 181.309943 87.383073 
L 181.309943 74.404302 
L 183.339034 74.404302 
L 183.339034 60.835587 
L 185.368125 60.835587 
L 185.368125 60.245642 
L 187.397216 60.245642 
L 187.397216 43.137263 
L 189.426307 43.137263 
L 189.426307 36.057933 
L 191.455398 36.057933 
L 191.455398 31.33838 
L 193.484489 31.33838 
L 193.484489 34.878045 
L 195.51358 34.878045 
L 195.51358 14.23 
L 197.54267 14.23 
L 197.54267 17.769665 
L 199.571761 17.769665 
L 199.571761 40.187542 
L 201.600852 40.187542 
L 201.600852 36.057933 
L 203.629943 36.057933 
L 203.629943 44.317151 
L 205.659034 44.317151 
L 205.659034 52.576369 
L 207.688125 52.576369 
L 207.688125 59.065754 
L 209.717216 59.065754 
L 209.717216 71.454581 
L 211.746307 71.454581 
L 211.746307 79.713799 
L 213.775398 79.713799 
L 213.775398 90.922737 
L 215.804489 90.922737 
L 215.804489 98.592011 
L 217.83358 98.592011 
L 217.83358 106.261285 
L 219.86267 106.261285 
L 219.86267 109.211006 
L 221.891761 109.211006 
L 221.891761 112.75067 
L 223.920852 112.75067 
L 223.920852 117.470223 
L 225.949943 117.470223 
L 225.949943 118.060168 
L 227.979034 118.060168 
L 227.979034 117.470223 
L 230.008125 117.470223 
L 230.008125 119.240056 
L 234.066307 119.240056 
L 234.066307 119.83 
L 240.15358 119.83 
L 240.15358 119.240056 
L 242.18267 119.240056 
L 242.18267 119.83 
L 242.18267 119.83 
" style="fill:none;stroke:#008fd5;stroke-linejoin:miter;"/>
   </g>
   <g id="patch_4">
    <path d="M 29.128125 119.83 
L 29.128125 8.95 
" style="fill:none;stroke:#000000;stroke-linecap:square;stroke-linejoin:miter;stroke-width:0.8;"/>
   </g>
   <g id="patch_5">
    <path d="M 252.328125 119.83 
L 252.328125 8.95 
" style="fill:none;stroke:#000000;stroke-linecap:square;stroke-linejoin:miter;stroke-width:0.8;"/>
   </g>
   <g id="patch_6">
    <path d="M 29.128125 119.83 
L 252.328125 119.83 
" style="fill:none;stroke:#000000;stroke-linecap:square;stroke-linejoin:miter;stroke-width:0.8;"/>
   </g>
   <g id="patch_7">
    <path d="M 29.128125 8.95 
L 252.328125 8.95 
" style="fill:none;stroke:#000000;stroke-linecap:square;stroke-linejoin:miter;stroke-width:0.8;"/>
   </g>
  </g>
 </g>
 <defs>
  <clipPath id="p7040cfee0a">
   <rect height="110.88" width="223.2" x="29.128125" y="8.95"/>
  </clipPath>
 </defs>
</svg>
