<?xml version="1.0" encoding="utf-8" standalone="no"?>
<!DOCTYPE svg PUBLIC "-//W3C//DTD SVG 1.1//EN"
  "http://www.w3.org/Graphics/SVG/1.1/DTD/svg11.dtd">
<svg height="141.33pt" version="1.1" viewBox="0 0 258.498437 141.33" width="258.498437pt" xmlns="http://www.w3.org/2000/svg" xmlns:xlink="http://www.w3.org/1999/xlink">
 <metadata>
  <rdf:RDF xmlns:cc="http://creativecommons.org/ns#" xmlns:dc="http://purl.org/dc/elements/1.1/" xmlns:rdf="http://www.w3.org/1999/02/22-rdf-syntax-ns#">
   <cc:Work>
    <dc:type rdf:resource="http://purl.org/dc/dcmitype/StillImage"/>
    <dc:date>2021-12-02T12:45:51.750182</dc:date>
    <dc:format>image/svg+xml</dc:format>
    <dc:creator>
     <cc:Agent>
      <dc:title>Matplotlib v3.4.2, https://matplotlib.org/</dc:title>
     </cc:Agent>
    </dc:creator>
   </cc:Work>
  </rdf:RDF>
 </metadata>
 <defs>
  <style type="text/css">*{stroke-linecap:butt;stroke-linejoin:round;}</style>
 </defs>
 <g id="figure_1">
  <g id="patch_1">
   <path d="M 0 141.33 
L 258.498437 141.33 
L 258.498437 0 
L 0 0 
z
" style="fill:#ffffff;"/>
  </g>
  <g id="axes_1">
   <g id="patch_2">
    <path d="M 26.348438 119.83 
L 249.548437 119.83 
L 249.548437 8.95 
L 26.348438 8.95 
z
" style="fill:#ffffff;"/>
   </g>
   <g id="matplotlib.axis_1">
    <g id="xtick_1">
     <g id="line2d_1">
      <defs>
       <path d="M 0 1.75 
L 0 -1.75 
" id="me9c15e352f" style="stroke:#000000;stroke-width:0.8;"/>
      </defs>
      <g>
       <use style="stroke:#000000;stroke-width:0.8;" x="36.486654" xlink:href="#me9c15e352f" y="119.83"/>
      </g>
     </g>
     <g id="line2d_2">
      <g>
       <use style="stroke:#000000;stroke-width:0.8;" x="36.486654" xlink:href="#me9c15e352f" y="8.95"/>
      </g>
     </g>
     <g id="text_1">
      <!-- 0 -->
      <g transform="translate(33.706967 132.220625)scale(0.1 -0.1)">
       <defs>
        <path d="M 1779 518 
C 1139 518 960 1306 960 2240 
C 960 3174 1139 3962 1779 3962 
C 2419 3962 2598 3174 2598 2240 
C 2598 1306 2419 518 1779 518 
z
M 1779 4570 
C 493 4570 230 3258 230 2240 
C 230 1222 493 -90 1779 -90 
C 3066 -90 3328 1222 3328 2240 
C 3328 3258 3066 4570 1779 4570 
z
" id="HelveticaNeue-Medium-30" transform="scale(0.015625)"/>
       </defs>
       <use xlink:href="#HelveticaNeue-Medium-30"/>
      </g>
     </g>
    </g>
    <g id="xtick_2">
     <g id="line2d_3">
      <g>
       <use style="stroke:#000000;stroke-width:0.8;" x="91.084029" xlink:href="#me9c15e352f" y="119.83"/>
      </g>
     </g>
     <g id="line2d_4">
      <g>
       <use style="stroke:#000000;stroke-width:0.8;" x="91.084029" xlink:href="#me9c15e352f" y="8.95"/>
      </g>
     </g>
     <g id="text_2">
      <!-- 1 -->
      <g transform="translate(88.304341 132.220625)scale(0.1 -0.1)">
       <defs>
        <path d="M 339 3162 
L 1440 3162 
L 1440 0 
L 2240 0 
L 2240 4480 
L 1645 4480 
C 1536 3942 954 3731 339 3738 
L 339 3162 
z
" id="HelveticaNeue-Medium-31" transform="scale(0.015625)"/>
       </defs>
       <use xlink:href="#HelveticaNeue-Medium-31"/>
      </g>
     </g>
    </g>
    <g id="xtick_3">
     <g id="line2d_5">
      <g>
       <use style="stroke:#000000;stroke-width:0.8;" x="145.681404" xlink:href="#me9c15e352f" y="119.83"/>
      </g>
     </g>
     <g id="line2d_6">
      <g>
       <use style="stroke:#000000;stroke-width:0.8;" x="145.681404" xlink:href="#me9c15e352f" y="8.95"/>
      </g>
     </g>
     <g id="text_3">
      <!-- 2 -->
      <g transform="translate(142.901716 132.220625)scale(0.1 -0.1)">
       <defs>
        <path d="M 3309 653 
L 1126 653 
C 1254 1050 1798 1325 2317 1683 
C 2829 2042 3315 2483 3315 3194 
C 3315 3770 2970 4570 1875 4570 
C 877 4570 333 3834 333 2842 
L 1062 2842 
C 1082 3469 1254 3962 1830 3962 
C 2458 3962 2592 3488 2586 3168 
C 2573 2470 1818 2118 1235 1696 
C 634 1293 256 736 250 0 
L 3309 0 
L 3309 653 
z
" id="HelveticaNeue-Medium-32" transform="scale(0.015625)"/>
       </defs>
       <use xlink:href="#HelveticaNeue-Medium-32"/>
      </g>
     </g>
    </g>
    <g id="xtick_4">
     <g id="line2d_7">
      <g>
       <use style="stroke:#000000;stroke-width:0.8;" x="200.278778" xlink:href="#me9c15e352f" y="119.83"/>
      </g>
     </g>
     <g id="line2d_8">
      <g>
       <use style="stroke:#000000;stroke-width:0.8;" x="200.278778" xlink:href="#me9c15e352f" y="8.95"/>
      </g>
     </g>
     <g id="text_4">
      <!-- 3 -->
      <g transform="translate(197.499091 132.220625)scale(0.1 -0.1)">
       <defs>
        <path d="M 1459 2080 
C 2035 2106 2630 2016 2630 1318 
C 2630 806 2259 518 1773 518 
C 1203 518 909 928 928 1472 
L 198 1472 
C 218 538 736 -90 1773 -90 
C 2630 -90 3360 435 3360 1280 
C 3360 1856 3053 2298 2547 2400 
L 2547 2413 
C 2976 2566 3181 2925 3181 3373 
C 3181 4166 2464 4570 1766 4570 
C 864 4570 320 3917 282 3046 
L 1011 3046 
C 998 3507 1248 3962 1754 3962 
C 2157 3962 2451 3706 2451 3328 
C 2451 2778 1946 2605 1459 2624 
L 1459 2080 
z
" id="HelveticaNeue-Medium-33" transform="scale(0.015625)"/>
       </defs>
       <use xlink:href="#HelveticaNeue-Medium-33"/>
      </g>
     </g>
    </g>
   </g>
   <g id="matplotlib.axis_2">
    <g id="ytick_1">
     <g id="line2d_9">
      <defs>
       <path d="M 1.75 0 
L -1.75 -0 
" id="mb56fbfca7f" style="stroke:#000000;stroke-width:0.8;"/>
      </defs>
      <g>
       <use style="stroke:#000000;stroke-width:0.8;" x="26.348438" xlink:href="#mb56fbfca7f" y="119.83"/>
      </g>
     </g>
     <g id="line2d_10">
      <g>
       <use style="stroke:#000000;stroke-width:0.8;" x="249.548437" xlink:href="#mb56fbfca7f" y="119.83"/>
      </g>
     </g>
     <g id="text_5">
      <!-- 0.0 -->
      <g transform="translate(7.2 123.400312)scale(0.1 -0.1)">
       <defs>
        <path d="M 442 0 
L 1331 0 
L 1331 864 
L 442 864 
L 442 0 
z
" id="HelveticaNeue-Medium-2e" transform="scale(0.015625)"/>
       </defs>
       <use xlink:href="#HelveticaNeue-Medium-30"/>
       <use x="55.599991" xlink:href="#HelveticaNeue-Medium-2e"/>
       <use x="83.399979" xlink:href="#HelveticaNeue-Medium-30"/>
      </g>
     </g>
    </g>
    <g id="ytick_2">
     <g id="line2d_11">
      <g>
       <use style="stroke:#000000;stroke-width:0.8;" x="26.348438" xlink:href="#mb56fbfca7f" y="75.934729"/>
      </g>
     </g>
     <g id="line2d_12">
      <g>
       <use style="stroke:#000000;stroke-width:0.8;" x="249.548437" xlink:href="#mb56fbfca7f" y="75.934729"/>
      </g>
     </g>
     <g id="text_6">
      <!-- 0.5 -->
      <g transform="translate(7.2 79.505041)scale(0.1 -0.1)">
       <defs>
        <path d="M 307 2029 
L 1037 2029 
C 1152 2342 1453 2438 1760 2438 
C 2349 2438 2611 1997 2611 1504 
C 2611 960 2400 518 1779 518 
C 1306 518 998 794 954 1274 
L 224 1274 
C 256 378 928 -90 1792 -90 
C 2893 -90 3341 800 3341 1517 
C 3341 2374 2829 3014 1939 3014 
C 1638 3014 1312 2893 1114 2675 
L 1101 2688 
L 1331 3827 
L 3104 3827 
L 3104 4480 
L 787 4480 
L 307 2029 
z
" id="HelveticaNeue-Medium-35" transform="scale(0.015625)"/>
       </defs>
       <use xlink:href="#HelveticaNeue-Medium-30"/>
       <use x="55.599991" xlink:href="#HelveticaNeue-Medium-2e"/>
       <use x="83.399979" xlink:href="#HelveticaNeue-Medium-35"/>
      </g>
     </g>
    </g>
    <g id="ytick_3">
     <g id="line2d_13">
      <g>
       <use style="stroke:#000000;stroke-width:0.8;" x="26.348438" xlink:href="#mb56fbfca7f" y="32.039458"/>
      </g>
     </g>
     <g id="line2d_14">
      <g>
       <use style="stroke:#000000;stroke-width:0.8;" x="249.548437" xlink:href="#mb56fbfca7f" y="32.039458"/>
      </g>
     </g>
     <g id="text_7">
      <!-- 1.0 -->
      <g transform="translate(7.2 35.60977)scale(0.1 -0.1)">
       <use xlink:href="#HelveticaNeue-Medium-31"/>
       <use x="55.599991" xlink:href="#HelveticaNeue-Medium-2e"/>
       <use x="83.399979" xlink:href="#HelveticaNeue-Medium-30"/>
      </g>
     </g>
    </g>
   </g>
   <g id="patch_3">
    <path clip-path="url(#p68ab89fca0)" d="M 36.493892 119.83 
L 36.493892 97.389032 
L 38.522983 97.389032 
L 38.522983 105.656757 
L 40.552074 105.656757 
L 40.552074 110.381171 
L 42.581165 110.381171 
L 42.581165 105.656757 
L 44.610256 105.656757 
L 44.610256 104.475653 
L 46.639347 104.475653 
L 46.639347 106.837861 
L 48.668437 106.837861 
L 48.668437 104.475653 
L 50.697528 104.475653 
L 50.697528 105.656757 
L 52.726619 105.656757 
L 52.726619 103.29455 
L 54.75571 103.29455 
L 54.75571 109.79062 
L 56.784801 109.79062 
L 56.784801 106.247309 
L 58.813892 106.247309 
L 58.813892 107.428412 
L 60.842983 107.428412 
L 60.842983 99.160687 
L 62.872074 99.160687 
L 62.872074 110.381171 
L 64.901165 110.381171 
L 64.901165 105.656757 
L 68.959347 105.656757 
L 68.959347 106.837861 
L 70.988437 106.837861 
L 70.988437 106.247309 
L 73.017528 106.247309 
L 73.017528 102.113446 
L 75.046619 102.113446 
L 75.046619 105.656757 
L 79.104801 105.656757 
L 79.104801 111.562275 
L 81.133892 111.562275 
L 81.133892 105.066205 
L 83.162983 105.066205 
L 83.162983 104.475653 
L 85.192074 104.475653 
L 85.192074 105.656757 
L 89.250256 105.656757 
L 89.250256 107.428412 
L 91.279347 107.428412 
L 91.279347 103.885102 
L 93.308437 103.885102 
L 93.308437 109.79062 
L 95.337528 109.79062 
L 95.337528 106.247309 
L 97.366619 106.247309 
L 97.366619 108.609516 
L 99.39571 108.609516 
L 99.39571 104.475653 
L 101.424801 104.475653 
L 101.424801 105.656757 
L 103.453892 105.656757 
L 103.453892 108.609516 
L 107.512074 108.609516 
L 107.512074 108.018964 
L 109.541165 108.018964 
L 109.541165 106.247309 
L 111.570256 106.247309 
L 111.570256 106.837861 
L 113.599347 106.837861 
L 113.599347 106.247309 
L 115.628437 106.247309 
L 115.628437 103.885102 
L 117.657528 103.885102 
L 117.657528 105.066205 
L 119.686619 105.066205 
L 119.686619 108.018964 
L 121.71571 108.018964 
L 121.71571 105.656757 
L 123.744801 105.656757 
L 123.744801 101.522894 
L 125.773892 101.522894 
L 125.773892 107.428412 
L 127.802983 107.428412 
L 127.802983 106.837861 
L 129.832074 106.837861 
L 129.832074 102.113446 
L 131.861165 102.113446 
L 131.861165 105.066205 
L 133.890256 105.066205 
L 133.890256 101.522894 
L 135.919347 101.522894 
L 135.919347 108.018964 
L 137.948437 108.018964 
L 137.948437 105.656757 
L 139.977528 105.656757 
L 139.977528 109.200068 
L 142.006619 109.200068 
L 142.006619 101.522894 
L 144.03571 101.522894 
L 144.03571 106.247309 
L 146.064801 106.247309 
L 146.064801 105.066205 
L 148.093892 105.066205 
L 148.093892 109.200068 
L 150.122983 109.200068 
L 150.122983 104.475653 
L 154.181165 104.475653 
L 154.181165 102.703998 
L 156.210256 102.703998 
L 156.210256 103.29455 
L 158.239347 103.29455 
L 158.239347 100.932343 
L 160.268437 100.932343 
L 160.268437 105.656757 
L 162.297528 105.656757 
L 162.297528 100.932343 
L 164.326619 100.932343 
L 164.326619 106.247309 
L 166.35571 106.247309 
L 166.35571 106.837861 
L 168.384801 106.837861 
L 168.384801 103.29455 
L 170.413892 103.29455 
L 170.413892 98.570135 
L 172.442983 98.570135 
L 172.442983 96.207928 
L 174.472074 96.207928 
L 174.472074 94.436273 
L 176.501165 94.436273 
L 176.501165 89.121307 
L 178.530256 89.121307 
L 178.530256 95.617376 
L 180.559347 95.617376 
L 180.559347 79.081926 
L 182.588437 79.081926 
L 182.588437 66.680339 
L 184.617528 66.680339 
L 184.617528 71.995305 
L 186.646619 71.995305 
L 186.646619 48.963785 
L 190.704801 48.963785 
L 190.704801 48.373233 
L 192.733892 48.373233 
L 192.733892 40.105508 
L 194.762983 40.105508 
L 194.762983 15.892884 
L 196.792074 15.892884 
L 196.792074 27.113368 
L 198.821165 27.113368 
L 198.821165 25.932265 
L 200.850256 25.932265 
L 200.850256 19.436195 
L 202.879347 19.436195 
L 202.879347 45.420474 
L 204.908437 45.420474 
L 204.908437 43.058267 
L 206.937528 43.058267 
L 206.937528 56.050406 
L 208.966619 56.050406 
L 208.966619 61.365372 
L 210.99571 61.365372 
L 210.99571 66.089787 
L 213.024801 66.089787 
L 213.024801 80.853582 
L 215.053892 80.853582 
L 215.053892 86.168548 
L 217.082983 86.168548 
L 217.082983 99.160687 
L 219.112074 99.160687 
L 219.112074 100.341791 
L 221.141165 100.341791 
L 221.141165 107.428412 
L 223.170256 107.428412 
L 223.170256 108.609516 
L 225.199347 108.609516 
L 225.199347 117.467793 
L 227.228437 117.467793 
L 227.228437 118.058345 
L 231.286619 118.058345 
L 231.286619 119.239448 
L 235.344801 119.239448 
L 235.344801 119.83 
L 237.373892 119.83 
L 237.373892 119.239448 
L 239.402983 119.239448 
L 239.402983 119.83 
L 239.402983 119.83 
" style="fill:none;stroke:#008fd5;stroke-linejoin:miter;"/>
   </g>
   <g id="patch_4">
    <path clip-path="url(#p68ab89fca0)" d="M 37.508437 119.83 
L 37.508437 95.27186 
L 39.460187 95.27186 
L 39.460187 114.918372 
L 41.411936 114.918372 
L 41.411936 107.55093 
L 43.363685 107.55093 
L 43.363685 110.006744 
L 45.315435 110.006744 
L 45.315435 105.095116 
L 47.267184 105.095116 
L 47.267184 107.55093 
L 49.218933 107.55093 
L 49.218933 105.095116 
L 53.122432 105.095116 
L 53.122432 110.006744 
L 55.074181 110.006744 
L 55.074181 107.55093 
L 57.02593 107.55093 
L 57.02593 110.006744 
L 58.97768 110.006744 
L 58.97768 102.639302 
L 60.929429 102.639302 
L 60.929429 110.006744 
L 62.881178 110.006744 
L 62.881178 112.462558 
L 64.832927 112.462558 
L 64.832927 100.183488 
L 66.784677 100.183488 
L 66.784677 107.55093 
L 68.736426 107.55093 
L 68.736426 95.27186 
L 70.688175 95.27186 
L 70.688175 110.006744 
L 72.639924 110.006744 
L 72.639924 102.639302 
L 74.591674 102.639302 
L 74.591674 100.183488 
L 76.543423 100.183488 
L 76.543423 102.639302 
L 78.495172 102.639302 
L 78.495172 110.006744 
L 82.398671 110.006744 
L 82.398671 100.183488 
L 84.35042 100.183488 
L 84.35042 102.639302 
L 86.302169 102.639302 
L 86.302169 114.918372 
L 88.253919 114.918372 
L 88.253919 107.55093 
L 90.205668 107.55093 
L 90.205668 105.095116 
L 92.157417 105.095116 
L 92.157417 107.55093 
L 96.060916 107.55093 
L 96.060916 102.639302 
L 98.012665 102.639302 
L 98.012665 105.095116 
L 99.964414 105.095116 
L 99.964414 110.006744 
L 101.916164 110.006744 
L 101.916164 105.095116 
L 103.867913 105.095116 
L 103.867913 114.918372 
L 105.819662 114.918372 
L 105.819662 107.55093 
L 107.771411 107.55093 
L 107.771411 105.095116 
L 109.723161 105.095116 
L 109.723161 102.639302 
L 111.67491 102.639302 
L 111.67491 110.006744 
L 113.626659 110.006744 
L 113.626659 107.55093 
L 115.578409 107.55093 
L 115.578409 100.183488 
L 117.530158 100.183488 
L 117.530158 112.462558 
L 119.481907 112.462558 
L 119.481907 107.55093 
L 123.385406 107.55093 
L 123.385406 112.462558 
L 125.337155 112.462558 
L 125.337155 102.639302 
L 127.288904 102.639302 
L 127.288904 105.095116 
L 129.240653 105.095116 
L 129.240653 102.639302 
L 133.144152 102.639302 
L 133.144152 87.904419 
L 135.095901 87.904419 
L 135.095901 112.462558 
L 137.047651 112.462558 
L 137.047651 110.006744 
L 138.9994 110.006744 
L 138.9994 112.462558 
L 140.951149 112.462558 
L 140.951149 105.095116 
L 142.902898 105.095116 
L 142.902898 87.904419 
L 144.854648 87.904419 
L 144.854648 112.462558 
L 146.806397 112.462558 
L 146.806397 105.095116 
L 148.758146 105.095116 
L 148.758146 100.183488 
L 150.709895 100.183488 
L 150.709895 97.727674 
L 152.661645 97.727674 
L 152.661645 102.639302 
L 154.613394 102.639302 
L 154.613394 95.27186 
L 156.565143 95.27186 
L 156.565143 100.183488 
L 158.516893 100.183488 
L 158.516893 102.639302 
L 160.468642 102.639302 
L 160.468642 97.727674 
L 162.420391 97.727674 
L 162.420391 90.360233 
L 164.37214 90.360233 
L 164.37214 110.006744 
L 166.32389 110.006744 
L 166.32389 105.095116 
L 168.275639 105.095116 
L 168.275639 90.360233 
L 170.227388 90.360233 
L 170.227388 92.816047 
L 174.130887 92.816047 
L 174.130887 100.183488 
L 176.082636 100.183488 
L 176.082636 85.448605 
L 179.986135 85.448605 
L 179.986135 63.346279 
L 181.937884 63.346279 
L 181.937884 58.434651 
L 183.889633 58.434651 
L 183.889633 73.169535 
L 185.841382 73.169535 
L 185.841382 53.523023 
L 187.793132 53.523023 
L 187.793132 48.611395 
L 189.744881 48.611395 
L 189.744881 43.699767 
L 191.69663 43.699767 
L 191.69663 33.876512 
L 193.64838 33.876512 
L 193.64838 14.23 
L 195.600129 14.23 
L 195.600129 43.699767 
L 197.551878 43.699767 
L 197.551878 16.685814 
L 199.503627 16.685814 
L 199.503627 19.141628 
L 201.455377 19.141628 
L 201.455377 41.243953 
L 203.407126 41.243953 
L 203.407126 68.257907 
L 205.358875 68.257907 
L 205.358875 36.332326 
L 207.310624 36.332326 
L 207.310624 65.802093 
L 209.262374 65.802093 
L 209.262374 80.536977 
L 211.214123 80.536977 
L 211.214123 90.360233 
L 213.165872 90.360233 
L 213.165872 87.904419 
L 215.117622 87.904419 
L 215.117622 100.183488 
L 219.02112 100.183488 
L 219.02112 105.095116 
L 220.972869 105.095116 
L 220.972869 112.462558 
L 222.924619 112.462558 
L 222.924619 114.918372 
L 224.876368 114.918372 
L 224.876368 117.374186 
L 226.828117 117.374186 
L 226.828117 114.918372 
L 228.779867 114.918372 
L 228.779867 112.462558 
L 230.731616 112.462558 
L 230.731616 117.374186 
L 232.683365 117.374186 
L 232.683365 119.83 
L 232.683365 119.83 
" style="fill:none;stroke:#fc4f30;stroke-linejoin:miter;"/>
   </g>
   <g id="patch_5">
    <path d="M 26.348438 119.83 
L 26.348438 8.95 
" style="fill:none;stroke:#000000;stroke-linecap:square;stroke-linejoin:miter;stroke-width:0.8;"/>
   </g>
   <g id="patch_6">
    <path d="M 249.548437 119.83 
L 249.548437 8.95 
" style="fill:none;stroke:#000000;stroke-linecap:square;stroke-linejoin:miter;stroke-width:0.8;"/>
   </g>
   <g id="patch_7">
    <path d="M 26.348437 119.83 
L 249.548437 119.83 
" style="fill:none;stroke:#000000;stroke-linecap:square;stroke-linejoin:miter;stroke-width:0.8;"/>
   </g>
   <g id="patch_8">
    <path d="M 26.348437 8.95 
L 249.548437 8.95 
" style="fill:none;stroke:#000000;stroke-linecap:square;stroke-linejoin:miter;stroke-width:0.8;"/>
   </g>
  </g>
 </g>
 <defs>
  <clipPath id="p68ab89fca0">
   <rect height="110.88" width="223.2" x="26.348438" y="8.95"/>
  </clipPath>
 </defs>
</svg>
