<?xml version="1.0" encoding="utf-8" standalone="no"?>
<!DOCTYPE svg PUBLIC "-//W3C//DTD SVG 1.1//EN"
  "http://www.w3.org/Graphics/SVG/1.1/DTD/svg11.dtd">
<svg height="141.33pt" version="1.1" viewBox="0 0 261.278125 141.33" width="261.278125pt" xmlns="http://www.w3.org/2000/svg" xmlns:xlink="http://www.w3.org/1999/xlink">
 <metadata>
  <rdf:RDF xmlns:cc="http://creativecommons.org/ns#" xmlns:dc="http://purl.org/dc/elements/1.1/" xmlns:rdf="http://www.w3.org/1999/02/22-rdf-syntax-ns#">
   <cc:Work>
    <dc:type rdf:resource="http://purl.org/dc/dcmitype/StillImage"/>
    <dc:date>2021-12-02T12:45:51.639430</dc:date>
    <dc:format>image/svg+xml</dc:format>
    <dc:creator>
     <cc:Agent>
      <dc:title>Matplotlib v3.4.2, https://matplotlib.org/</dc:title>
     </cc:Agent>
    </dc:creator>
   </cc:Work>
  </rdf:RDF>
 </metadata>
 <defs>
  <style type="text/css">*{stroke-linecap:butt;stroke-linejoin:round;}</style>
 </defs>
 <g id="figure_1">
  <g id="patch_1">
   <path d="M 0 141.33 
L 261.278125 141.33 
L 261.278125 0 
L 0 0 
z
" style="fill:#ffffff;"/>
  </g>
  <g id="axes_1">
   <g id="patch_2">
    <path d="M 29.128125 119.83 
L 252.328125 119.83 
L 252.328125 8.95 
L 29.128125 8.95 
z
" style="fill:#ffffff;"/>
   </g>
   <g id="matplotlib.axis_1">
    <g id="xtick_1">
     <g id="line2d_1">
      <defs>
       <path d="M 0 1.75 
L 0 -1.75 
" id="m58ba885dfb" style="stroke:#000000;stroke-width:0.8;"/>
      </defs>
      <g>
       <use style="stroke:#000000;stroke-width:0.8;" x="39.266342" xlink:href="#m58ba885dfb" y="119.83"/>
      </g>
     </g>
     <g id="line2d_2">
      <g>
       <use style="stroke:#000000;stroke-width:0.8;" x="39.266342" xlink:href="#m58ba885dfb" y="8.95"/>
      </g>
     </g>
     <g id="text_1">
      <!-- 0 -->
      <g transform="translate(36.486654 132.220625)scale(0.1 -0.1)">
       <defs>
        <path d="M 1779 518 
C 1139 518 960 1306 960 2240 
C 960 3174 1139 3962 1779 3962 
C 2419 3962 2598 3174 2598 2240 
C 2598 1306 2419 518 1779 518 
z
M 1779 4570 
C 493 4570 230 3258 230 2240 
C 230 1222 493 -90 1779 -90 
C 3066 -90 3328 1222 3328 2240 
C 3328 3258 3066 4570 1779 4570 
z
" id="HelveticaNeue-Medium-30" transform="scale(0.015625)"/>
       </defs>
       <use xlink:href="#HelveticaNeue-Medium-30"/>
      </g>
     </g>
    </g>
    <g id="xtick_2">
     <g id="line2d_3">
      <g>
       <use style="stroke:#000000;stroke-width:0.8;" x="93.863716" xlink:href="#m58ba885dfb" y="119.83"/>
      </g>
     </g>
     <g id="line2d_4">
      <g>
       <use style="stroke:#000000;stroke-width:0.8;" x="93.863716" xlink:href="#m58ba885dfb" y="8.95"/>
      </g>
     </g>
     <g id="text_2">
      <!-- 1 -->
      <g transform="translate(91.084029 132.220625)scale(0.1 -0.1)">
       <defs>
        <path d="M 339 3162 
L 1440 3162 
L 1440 0 
L 2240 0 
L 2240 4480 
L 1645 4480 
C 1536 3942 954 3731 339 3738 
L 339 3162 
z
" id="HelveticaNeue-Medium-31" transform="scale(0.015625)"/>
       </defs>
       <use xlink:href="#HelveticaNeue-Medium-31"/>
      </g>
     </g>
    </g>
    <g id="xtick_3">
     <g id="line2d_5">
      <g>
       <use style="stroke:#000000;stroke-width:0.8;" x="148.461091" xlink:href="#m58ba885dfb" y="119.83"/>
      </g>
     </g>
     <g id="line2d_6">
      <g>
       <use style="stroke:#000000;stroke-width:0.8;" x="148.461091" xlink:href="#m58ba885dfb" y="8.95"/>
      </g>
     </g>
     <g id="text_3">
      <!-- 2 -->
      <g transform="translate(145.681404 132.220625)scale(0.1 -0.1)">
       <defs>
        <path d="M 3309 653 
L 1126 653 
C 1254 1050 1798 1325 2317 1683 
C 2829 2042 3315 2483 3315 3194 
C 3315 3770 2970 4570 1875 4570 
C 877 4570 333 3834 333 2842 
L 1062 2842 
C 1082 3469 1254 3962 1830 3962 
C 2458 3962 2592 3488 2586 3168 
C 2573 2470 1818 2118 1235 1696 
C 634 1293 256 736 250 0 
L 3309 0 
L 3309 653 
z
" id="HelveticaNeue-Medium-32" transform="scale(0.015625)"/>
       </defs>
       <use xlink:href="#HelveticaNeue-Medium-32"/>
      </g>
     </g>
    </g>
    <g id="xtick_4">
     <g id="line2d_7">
      <g>
       <use style="stroke:#000000;stroke-width:0.8;" x="203.058466" xlink:href="#m58ba885dfb" y="119.83"/>
      </g>
     </g>
     <g id="line2d_8">
      <g>
       <use style="stroke:#000000;stroke-width:0.8;" x="203.058466" xlink:href="#m58ba885dfb" y="8.95"/>
      </g>
     </g>
     <g id="text_4">
      <!-- 3 -->
      <g transform="translate(200.278778 132.220625)scale(0.1 -0.1)">
       <defs>
        <path d="M 1459 2080 
C 2035 2106 2630 2016 2630 1318 
C 2630 806 2259 518 1773 518 
C 1203 518 909 928 928 1472 
L 198 1472 
C 218 538 736 -90 1773 -90 
C 2630 -90 3360 435 3360 1280 
C 3360 1856 3053 2298 2547 2400 
L 2547 2413 
C 2976 2566 3181 2925 3181 3373 
C 3181 4166 2464 4570 1766 4570 
C 864 4570 320 3917 282 3046 
L 1011 3046 
C 998 3507 1248 3962 1754 3962 
C 2157 3962 2451 3706 2451 3328 
C 2451 2778 1946 2605 1459 2624 
L 1459 2080 
z
" id="HelveticaNeue-Medium-33" transform="scale(0.015625)"/>
       </defs>
       <use xlink:href="#HelveticaNeue-Medium-33"/>
      </g>
     </g>
    </g>
   </g>
   <g id="matplotlib.axis_2">
    <g id="ytick_1">
     <g id="line2d_9">
      <defs>
       <path d="M 1.75 0 
L -1.75 -0 
" id="ma30f9e5a78" style="stroke:#000000;stroke-width:0.8;"/>
      </defs>
      <g>
       <use style="stroke:#000000;stroke-width:0.8;" x="29.128125" xlink:href="#ma30f9e5a78" y="119.83"/>
      </g>
     </g>
     <g id="line2d_10">
      <g>
       <use style="stroke:#000000;stroke-width:0.8;" x="252.328125" xlink:href="#ma30f9e5a78" y="119.83"/>
      </g>
     </g>
     <g id="text_5">
      <!-- 0 -->
      <g transform="translate(18.31875 123.400312)scale(0.1 -0.1)">
       <use xlink:href="#HelveticaNeue-Medium-30"/>
      </g>
     </g>
    </g>
    <g id="ytick_2">
     <g id="line2d_11">
      <g>
       <use style="stroke:#000000;stroke-width:0.8;" x="29.128125" xlink:href="#ma30f9e5a78" y="89.83"/>
      </g>
     </g>
     <g id="line2d_12">
      <g>
       <use style="stroke:#000000;stroke-width:0.8;" x="252.328125" xlink:href="#ma30f9e5a78" y="89.83"/>
      </g>
     </g>
     <g id="text_6">
      <!-- 50 -->
      <g transform="translate(12.759375 93.400312)scale(0.1 -0.1)">
       <defs>
        <path d="M 307 2029 
L 1037 2029 
C 1152 2342 1453 2438 1760 2438 
C 2349 2438 2611 1997 2611 1504 
C 2611 960 2400 518 1779 518 
C 1306 518 998 794 954 1274 
L 224 1274 
C 256 378 928 -90 1792 -90 
C 2893 -90 3341 800 3341 1517 
C 3341 2374 2829 3014 1939 3014 
C 1638 3014 1312 2893 1114 2675 
L 1101 2688 
L 1331 3827 
L 3104 3827 
L 3104 4480 
L 787 4480 
L 307 2029 
z
" id="HelveticaNeue-Medium-35" transform="scale(0.015625)"/>
       </defs>
       <use xlink:href="#HelveticaNeue-Medium-35"/>
       <use x="55.599991" xlink:href="#HelveticaNeue-Medium-30"/>
      </g>
     </g>
    </g>
    <g id="ytick_3">
     <g id="line2d_13">
      <g>
       <use style="stroke:#000000;stroke-width:0.8;" x="29.128125" xlink:href="#ma30f9e5a78" y="59.83"/>
      </g>
     </g>
     <g id="line2d_14">
      <g>
       <use style="stroke:#000000;stroke-width:0.8;" x="252.328125" xlink:href="#ma30f9e5a78" y="59.83"/>
      </g>
     </g>
     <g id="text_7">
      <!-- 100 -->
      <g transform="translate(7.2 63.400312)scale(0.1 -0.1)">
       <use xlink:href="#HelveticaNeue-Medium-31"/>
       <use x="55.599991" xlink:href="#HelveticaNeue-Medium-30"/>
       <use x="111.199982" xlink:href="#HelveticaNeue-Medium-30"/>
      </g>
     </g>
    </g>
    <g id="ytick_4">
     <g id="line2d_15">
      <g>
       <use style="stroke:#000000;stroke-width:0.8;" x="29.128125" xlink:href="#ma30f9e5a78" y="29.83"/>
      </g>
     </g>
     <g id="line2d_16">
      <g>
       <use style="stroke:#000000;stroke-width:0.8;" x="252.328125" xlink:href="#ma30f9e5a78" y="29.83"/>
      </g>
     </g>
     <g id="text_8">
      <!-- 150 -->
      <g transform="translate(7.2 33.400312)scale(0.1 -0.1)">
       <use xlink:href="#HelveticaNeue-Medium-31"/>
       <use x="55.599991" xlink:href="#HelveticaNeue-Medium-35"/>
       <use x="111.199982" xlink:href="#HelveticaNeue-Medium-30"/>
      </g>
     </g>
    </g>
   </g>
   <g id="patch_3">
    <path clip-path="url(#p219e3d0e7f)" d="M 39.27358 119.83 
L 39.27358 97.03 
L 41.30267 97.03 
L 41.30267 105.43 
L 43.331761 105.43 
L 43.331761 110.23 
L 45.360852 110.23 
L 45.360852 105.43 
L 47.389943 105.43 
L 47.389943 104.23 
L 49.419034 104.23 
L 49.419034 106.63 
L 51.448125 106.63 
L 51.448125 104.23 
L 53.477216 104.23 
L 53.477216 105.43 
L 55.506307 105.43 
L 55.506307 103.03 
L 57.535398 103.03 
L 57.535398 109.63 
L 59.564489 109.63 
L 59.564489 106.03 
L 61.59358 106.03 
L 61.59358 107.23 
L 63.62267 107.23 
L 63.62267 98.83 
L 65.651761 98.83 
L 65.651761 110.23 
L 67.680852 110.23 
L 67.680852 105.43 
L 71.739034 105.43 
L 71.739034 106.63 
L 73.768125 106.63 
L 73.768125 106.03 
L 75.797216 106.03 
L 75.797216 101.83 
L 77.826307 101.83 
L 77.826307 105.43 
L 81.884489 105.43 
L 81.884489 111.43 
L 83.91358 111.43 
L 83.91358 104.83 
L 85.94267 104.83 
L 85.94267 104.23 
L 87.971761 104.23 
L 87.971761 105.43 
L 92.029943 105.43 
L 92.029943 107.23 
L 94.059034 107.23 
L 94.059034 103.63 
L 96.088125 103.63 
L 96.088125 109.63 
L 98.117216 109.63 
L 98.117216 106.03 
L 100.146307 106.03 
L 100.146307 108.43 
L 102.175398 108.43 
L 102.175398 104.23 
L 104.204489 104.23 
L 104.204489 105.43 
L 106.23358 105.43 
L 106.23358 108.43 
L 110.291761 108.43 
L 110.291761 107.83 
L 112.320852 107.83 
L 112.320852 106.03 
L 114.349943 106.03 
L 114.349943 106.63 
L 116.379034 106.63 
L 116.379034 106.03 
L 118.408125 106.03 
L 118.408125 103.63 
L 120.437216 103.63 
L 120.437216 104.83 
L 122.466307 104.83 
L 122.466307 107.83 
L 124.495398 107.83 
L 124.495398 105.43 
L 126.524489 105.43 
L 126.524489 101.23 
L 128.55358 101.23 
L 128.55358 107.23 
L 130.58267 107.23 
L 130.58267 106.63 
L 132.611761 106.63 
L 132.611761 101.83 
L 134.640852 101.83 
L 134.640852 104.83 
L 136.669943 104.83 
L 136.669943 101.23 
L 138.699034 101.23 
L 138.699034 107.83 
L 140.728125 107.83 
L 140.728125 105.43 
L 142.757216 105.43 
L 142.757216 109.03 
L 144.786307 109.03 
L 144.786307 101.23 
L 146.815398 101.23 
L 146.815398 106.03 
L 148.844489 106.03 
L 148.844489 104.83 
L 150.87358 104.83 
L 150.87358 109.03 
L 152.90267 109.03 
L 152.90267 104.23 
L 156.960852 104.23 
L 156.960852 102.43 
L 158.989943 102.43 
L 158.989943 103.03 
L 161.019034 103.03 
L 161.019034 100.63 
L 163.048125 100.63 
L 163.048125 105.43 
L 165.077216 105.43 
L 165.077216 100.63 
L 167.106307 100.63 
L 167.106307 106.03 
L 169.135398 106.03 
L 169.135398 106.63 
L 171.164489 106.63 
L 171.164489 103.03 
L 173.19358 103.03 
L 173.19358 98.23 
L 175.22267 98.23 
L 175.22267 95.83 
L 177.251761 95.83 
L 177.251761 94.03 
L 179.280852 94.03 
L 179.280852 88.63 
L 181.309943 88.63 
L 181.309943 95.23 
L 183.339034 95.23 
L 183.339034 78.43 
L 185.368125 78.43 
L 185.368125 65.83 
L 187.397216 65.83 
L 187.397216 71.23 
L 189.426307 71.23 
L 189.426307 47.83 
L 193.484489 47.83 
L 193.484489 47.23 
L 195.51358 47.23 
L 195.51358 38.83 
L 197.54267 38.83 
L 197.54267 14.23 
L 199.571761 14.23 
L 199.571761 25.63 
L 201.600852 25.63 
L 201.600852 24.43 
L 203.629943 24.43 
L 203.629943 17.83 
L 205.659034 17.83 
L 205.659034 44.23 
L 207.688125 44.23 
L 207.688125 41.83 
L 209.717216 41.83 
L 209.717216 55.03 
L 211.746307 55.03 
L 211.746307 60.43 
L 213.775398 60.43 
L 213.775398 65.23 
L 215.804489 65.23 
L 215.804489 80.23 
L 217.83358 80.23 
L 217.83358 85.63 
L 219.86267 85.63 
L 219.86267 98.83 
L 221.891761 98.83 
L 221.891761 100.03 
L 223.920852 100.03 
L 223.920852 107.23 
L 225.949943 107.23 
L 225.949943 108.43 
L 227.979034 108.43 
L 227.979034 117.43 
L 230.008125 117.43 
L 230.008125 118.03 
L 234.066307 118.03 
L 234.066307 119.23 
L 238.124489 119.23 
L 238.124489 119.83 
L 240.15358 119.83 
L 240.15358 119.23 
L 242.18267 119.23 
L 242.18267 119.83 
L 242.18267 119.83 
" style="fill:none;stroke:#008fd5;stroke-linejoin:miter;"/>
   </g>
   <g id="patch_4">
    <path d="M 29.128125 119.83 
L 29.128125 8.95 
" style="fill:none;stroke:#000000;stroke-linecap:square;stroke-linejoin:miter;stroke-width:0.8;"/>
   </g>
   <g id="patch_5">
    <path d="M 252.328125 119.83 
L 252.328125 8.95 
" style="fill:none;stroke:#000000;stroke-linecap:square;stroke-linejoin:miter;stroke-width:0.8;"/>
   </g>
   <g id="patch_6">
    <path d="M 29.128125 119.83 
L 252.328125 119.83 
" style="fill:none;stroke:#000000;stroke-linecap:square;stroke-linejoin:miter;stroke-width:0.8;"/>
   </g>
   <g id="patch_7">
    <path d="M 29.128125 8.95 
L 252.328125 8.95 
" style="fill:none;stroke:#000000;stroke-linecap:square;stroke-linejoin:miter;stroke-width:0.8;"/>
   </g>
  </g>
 </g>
 <defs>
  <clipPath id="p219e3d0e7f">
   <rect height="110.88" width="223.2" x="29.128125" y="8.95"/>
  </clipPath>
 </defs>
</svg>
