<?xml version="1.0" encoding="utf-8" standalone="no"?>
<!DOCTYPE svg PUBLIC "-//W3C//DTD SVG 1.1//EN"
  "http://www.w3.org/Graphics/SVG/1.1/DTD/svg11.dtd">
<svg height="141.958125pt" version="1.1" viewBox="0 0 260.503125 141.958125" width="260.503125pt" xmlns="http://www.w3.org/2000/svg" xmlns:xlink="http://www.w3.org/1999/xlink">
 <metadata>
  <rdf:RDF xmlns:cc="http://creativecommons.org/ns#" xmlns:dc="http://purl.org/dc/elements/1.1/" xmlns:rdf="http://www.w3.org/1999/02/22-rdf-syntax-ns#">
   <cc:Work>
    <dc:type rdf:resource="http://purl.org/dc/dcmitype/StillImage"/>
    <dc:date>2021-07-21T12:15:18.990330</dc:date>
    <dc:format>image/svg+xml</dc:format>
    <dc:creator>
     <cc:Agent>
      <dc:title>Matplotlib v3.4.2, https://matplotlib.org/</dc:title>
     </cc:Agent>
    </dc:creator>
   </cc:Work>
  </rdf:RDF>
 </metadata>
 <defs>
  <style type="text/css">*{stroke-linecap:butt;stroke-linejoin:round;}</style>
 </defs>
 <g id="figure_1">
  <g id="patch_1">
   <path d="M 0 141.958125 
L 260.503125 141.958125 
L 260.503125 0 
L 0 0 
z
" style="fill:#ffffff;"/>
  </g>
  <g id="axes_1">
   <g id="patch_2">
    <path d="M 30.103125 118.08 
L 253.303125 118.08 
L 253.303125 7.2 
L 30.103125 7.2 
z
" style="fill:#ffffff;"/>
   </g>
   <g id="matplotlib.axis_1">
    <g id="xtick_1">
     <g id="line2d_1">
      <defs>
       <path d="M 0 0 
L 0 3.5 
" id="mb929f3826a" style="stroke:#000000;stroke-width:0.8;"/>
      </defs>
      <g>
       <use style="stroke:#000000;stroke-width:0.8;" x="40.235495" xlink:href="#mb929f3826a" y="118.08"/>
      </g>
     </g>
     <g id="text_1">
      <!-- 0 -->
      <g transform="translate(37.054245 132.678438)scale(0.1 -0.1)">
       <defs>
        <path d="M 2034 4250 
Q 1547 4250 1301 3770 
Q 1056 3291 1056 2328 
Q 1056 1369 1301 889 
Q 1547 409 2034 409 
Q 2525 409 2770 889 
Q 3016 1369 3016 2328 
Q 3016 3291 2770 3770 
Q 2525 4250 2034 4250 
z
M 2034 4750 
Q 2819 4750 3233 4129 
Q 3647 3509 3647 2328 
Q 3647 1150 3233 529 
Q 2819 -91 2034 -91 
Q 1250 -91 836 529 
Q 422 1150 422 2328 
Q 422 3509 836 4129 
Q 1250 4750 2034 4750 
z
" id="DejaVuSans-30" transform="scale(0.015625)"/>
       </defs>
       <use xlink:href="#DejaVuSans-30"/>
      </g>
     </g>
    </g>
    <g id="xtick_2">
     <g id="line2d_2">
      <g>
       <use style="stroke:#000000;stroke-width:0.8;" x="96.778435" xlink:href="#mb929f3826a" y="118.08"/>
      </g>
     </g>
     <g id="text_2">
      <!-- 1 -->
      <g transform="translate(93.597185 132.678438)scale(0.1 -0.1)">
       <defs>
        <path d="M 794 531 
L 1825 531 
L 1825 4091 
L 703 3866 
L 703 4441 
L 1819 4666 
L 2450 4666 
L 2450 531 
L 3481 531 
L 3481 0 
L 794 0 
L 794 531 
z
" id="DejaVuSans-31" transform="scale(0.015625)"/>
       </defs>
       <use xlink:href="#DejaVuSans-31"/>
      </g>
     </g>
    </g>
    <g id="xtick_3">
     <g id="line2d_3">
      <g>
       <use style="stroke:#000000;stroke-width:0.8;" x="153.321374" xlink:href="#mb929f3826a" y="118.08"/>
      </g>
     </g>
     <g id="text_3">
      <!-- 2 -->
      <g transform="translate(150.140124 132.678438)scale(0.1 -0.1)">
       <defs>
        <path d="M 1228 531 
L 3431 531 
L 3431 0 
L 469 0 
L 469 531 
Q 828 903 1448 1529 
Q 2069 2156 2228 2338 
Q 2531 2678 2651 2914 
Q 2772 3150 2772 3378 
Q 2772 3750 2511 3984 
Q 2250 4219 1831 4219 
Q 1534 4219 1204 4116 
Q 875 4013 500 3803 
L 500 4441 
Q 881 4594 1212 4672 
Q 1544 4750 1819 4750 
Q 2544 4750 2975 4387 
Q 3406 4025 3406 3419 
Q 3406 3131 3298 2873 
Q 3191 2616 2906 2266 
Q 2828 2175 2409 1742 
Q 1991 1309 1228 531 
z
" id="DejaVuSans-32" transform="scale(0.015625)"/>
       </defs>
       <use xlink:href="#DejaVuSans-32"/>
      </g>
     </g>
    </g>
    <g id="xtick_4">
     <g id="line2d_4">
      <g>
       <use style="stroke:#000000;stroke-width:0.8;" x="209.864314" xlink:href="#mb929f3826a" y="118.08"/>
      </g>
     </g>
     <g id="text_4">
      <!-- 3 -->
      <g transform="translate(206.683064 132.678438)scale(0.1 -0.1)">
       <defs>
        <path d="M 2597 2516 
Q 3050 2419 3304 2112 
Q 3559 1806 3559 1356 
Q 3559 666 3084 287 
Q 2609 -91 1734 -91 
Q 1441 -91 1130 -33 
Q 819 25 488 141 
L 488 750 
Q 750 597 1062 519 
Q 1375 441 1716 441 
Q 2309 441 2620 675 
Q 2931 909 2931 1356 
Q 2931 1769 2642 2001 
Q 2353 2234 1838 2234 
L 1294 2234 
L 1294 2753 
L 1863 2753 
Q 2328 2753 2575 2939 
Q 2822 3125 2822 3475 
Q 2822 3834 2567 4026 
Q 2313 4219 1838 4219 
Q 1578 4219 1281 4162 
Q 984 4106 628 3988 
L 628 4550 
Q 988 4650 1302 4700 
Q 1616 4750 1894 4750 
Q 2613 4750 3031 4423 
Q 3450 4097 3450 3541 
Q 3450 3153 3228 2886 
Q 3006 2619 2597 2516 
z
" id="DejaVuSans-33" transform="scale(0.015625)"/>
       </defs>
       <use xlink:href="#DejaVuSans-33"/>
      </g>
     </g>
    </g>
   </g>
   <g id="matplotlib.axis_2">
    <g id="ytick_1">
     <g id="line2d_5">
      <defs>
       <path d="M 0 0 
L -3.5 0 
" id="mff29f1712a" style="stroke:#000000;stroke-width:0.8;"/>
      </defs>
      <g>
       <use style="stroke:#000000;stroke-width:0.8;" x="30.103125" xlink:href="#mff29f1712a" y="118.08"/>
      </g>
     </g>
     <g id="text_5">
      <!-- 0.0 -->
      <g transform="translate(7.2 121.879219)scale(0.1 -0.1)">
       <defs>
        <path d="M 684 794 
L 1344 794 
L 1344 0 
L 684 0 
L 684 794 
z
" id="DejaVuSans-2e" transform="scale(0.015625)"/>
       </defs>
       <use xlink:href="#DejaVuSans-30"/>
       <use x="63.623047" xlink:href="#DejaVuSans-2e"/>
       <use x="95.410156" xlink:href="#DejaVuSans-30"/>
      </g>
     </g>
    </g>
    <g id="ytick_2">
     <g id="line2d_6">
      <g>
       <use style="stroke:#000000;stroke-width:0.8;" x="30.103125" xlink:href="#mff29f1712a" y="74.578323"/>
      </g>
     </g>
     <g id="text_6">
      <!-- 0.5 -->
      <g transform="translate(7.2 78.377541)scale(0.1 -0.1)">
       <defs>
        <path d="M 691 4666 
L 3169 4666 
L 3169 4134 
L 1269 4134 
L 1269 2991 
Q 1406 3038 1543 3061 
Q 1681 3084 1819 3084 
Q 2600 3084 3056 2656 
Q 3513 2228 3513 1497 
Q 3513 744 3044 326 
Q 2575 -91 1722 -91 
Q 1428 -91 1123 -41 
Q 819 9 494 109 
L 494 744 
Q 775 591 1075 516 
Q 1375 441 1709 441 
Q 2250 441 2565 725 
Q 2881 1009 2881 1497 
Q 2881 1984 2565 2268 
Q 2250 2553 1709 2553 
Q 1456 2553 1204 2497 
Q 953 2441 691 2322 
L 691 4666 
z
" id="DejaVuSans-35" transform="scale(0.015625)"/>
       </defs>
       <use xlink:href="#DejaVuSans-30"/>
       <use x="63.623047" xlink:href="#DejaVuSans-2e"/>
       <use x="95.410156" xlink:href="#DejaVuSans-35"/>
      </g>
     </g>
    </g>
    <g id="ytick_3">
     <g id="line2d_7">
      <g>
       <use style="stroke:#000000;stroke-width:0.8;" x="30.103125" xlink:href="#mff29f1712a" y="31.076645"/>
      </g>
     </g>
     <g id="text_7">
      <!-- 1.0 -->
      <g transform="translate(7.2 34.875864)scale(0.1 -0.1)">
       <use xlink:href="#DejaVuSans-31"/>
       <use x="63.623047" xlink:href="#DejaVuSans-2e"/>
       <use x="95.410156" xlink:href="#DejaVuSans-30"/>
      </g>
     </g>
    </g>
   </g>
   <g id="patch_3">
    <path clip-path="url(#p46397366e1)" d="M 40.24858 118.08 
L 40.24858 101.108864 
L 42.27767 101.108864 
L 42.27767 100.502752 
L 44.306761 100.502752 
L 44.306761 102.321088 
L 46.335852 102.321088 
L 46.335852 105.95776 
L 50.394034 105.95776 
L 50.394034 105.351648 
L 52.423125 105.351648 
L 52.423125 103.533312 
L 54.452216 103.533312 
L 54.452216 104.745536 
L 58.510398 104.745536 
L 58.510398 99.290528 
L 60.539489 99.290528 
L 60.539489 104.139424 
L 62.56858 104.139424 
L 62.56858 110.806656 
L 64.59767 110.806656 
L 64.59767 104.139424 
L 66.626761 104.139424 
L 66.626761 105.95776 
L 68.655852 105.95776 
L 68.655852 102.321088 
L 70.684943 102.321088 
L 70.684943 104.745536 
L 72.714034 104.745536 
L 72.714034 106.563872 
L 74.743125 106.563872 
L 74.743125 108.382208 
L 76.772216 108.382208 
L 76.772216 99.290528 
L 78.801307 99.290528 
L 78.801307 104.745536 
L 80.830398 104.745536 
L 80.830398 106.563872 
L 82.859489 106.563872 
L 82.859489 104.139424 
L 84.88858 104.139424 
L 84.88858 102.9272 
L 86.91767 102.9272 
L 86.91767 107.169984 
L 88.946761 107.169984 
L 88.946761 101.714976 
L 90.975852 101.714976 
L 90.975852 101.108864 
L 93.004943 101.108864 
L 93.004943 103.533312 
L 95.034034 103.533312 
L 95.034034 102.9272 
L 97.063125 102.9272 
L 97.063125 101.714976 
L 99.092216 101.714976 
L 99.092216 99.290528 
L 101.121307 99.290528 
L 101.121307 108.382208 
L 103.150398 108.382208 
L 103.150398 100.502752 
L 105.179489 100.502752 
L 105.179489 101.714976 
L 107.20858 101.714976 
L 107.20858 100.502752 
L 109.23767 100.502752 
L 109.23767 101.714976 
L 111.266761 101.714976 
L 111.266761 110.200544 
L 113.295852 110.200544 
L 113.295852 104.139424 
L 115.324943 104.139424 
L 115.324943 105.95776 
L 117.354034 105.95776 
L 117.354034 103.533312 
L 119.383125 103.533312 
L 119.383125 104.745536 
L 123.441307 104.745536 
L 123.441307 101.108864 
L 125.470398 101.108864 
L 125.470398 100.502752 
L 127.499489 100.502752 
L 127.499489 104.745536 
L 129.52858 104.745536 
L 129.52858 97.472192 
L 131.55767 97.472192 
L 131.55767 103.533312 
L 133.586761 103.533312 
L 133.586761 102.9272 
L 135.615852 102.9272 
L 135.615852 107.776096 
L 137.644943 107.776096 
L 137.644943 107.169984 
L 139.674034 107.169984 
L 139.674034 101.108864 
L 141.703125 101.108864 
L 141.703125 101.714976 
L 143.732216 101.714976 
L 143.732216 98.684416 
L 145.761307 98.684416 
L 145.761307 102.9272 
L 147.790398 102.9272 
L 147.790398 103.533312 
L 149.819489 103.533312 
L 149.819489 108.382208 
L 151.84858 108.382208 
L 151.84858 106.563872 
L 153.87767 106.563872 
L 153.87767 102.9272 
L 155.906761 102.9272 
L 155.906761 101.714976 
L 157.935852 101.714976 
L 157.935852 101.108864 
L 159.964943 101.108864 
L 159.964943 105.95776 
L 161.994034 105.95776 
L 161.994034 100.502752 
L 164.023125 100.502752 
L 164.023125 105.351648 
L 166.052216 105.351648 
L 166.052216 102.9272 
L 168.081307 102.9272 
L 168.081307 105.351648 
L 170.110398 105.351648 
L 170.110398 98.078304 
L 172.139489 98.078304 
L 172.139489 104.745536 
L 174.16858 104.745536 
L 174.16858 101.714976 
L 176.19767 101.714976 
L 176.19767 104.139424 
L 178.226761 104.139424 
L 178.226761 105.95776 
L 180.255852 105.95776 
L 180.255852 96.259968 
L 182.284943 96.259968 
L 182.284943 93.83552 
L 184.314034 93.83552 
L 184.314034 90.80496 
L 186.343125 90.80496 
L 186.343125 91.411072 
L 188.372216 91.411072 
L 188.372216 87.168288 
L 190.401307 87.168288 
L 190.401307 76.864384 
L 192.430398 76.864384 
L 192.430398 73.833824 
L 194.459489 73.833824 
L 194.459489 70.197152 
L 196.48858 70.197152 
L 196.48858 56.256575 
L 198.51767 56.256575 
L 198.51767 45.346559 
L 200.546761 45.346559 
L 200.546761 32.012095 
L 202.575852 32.012095 
L 202.575852 35.648767 
L 204.604943 35.648767 
L 204.604943 25.950975 
L 206.634034 25.950975 
L 206.634034 21.708191 
L 208.663125 21.708191 
L 208.663125 22.314303 
L 210.692216 22.314303 
L 210.692216 34.436543 
L 212.721307 34.436543 
L 212.721307 37.467103 
L 214.750398 37.467103 
L 214.750398 39.891551 
L 216.779489 39.891551 
L 216.779489 48.983231 
L 218.80858 48.983231 
L 218.80858 52.013791 
L 220.83767 52.013791 
L 220.83767 71.409376 
L 222.866761 71.409376 
L 222.866761 73.227712 
L 224.895852 73.227712 
L 224.895852 90.198848 
L 226.924943 90.198848 
L 226.924943 89.592736 
L 228.954034 89.592736 
L 228.954034 104.139424 
L 230.983125 104.139424 
L 230.983125 104.745536 
L 233.012216 104.745536 
L 233.012216 111.412768 
L 235.041307 111.412768 
L 235.041307 110.200544 
L 237.070398 110.200544 
L 237.070398 113.837216 
L 239.099489 113.837216 
L 239.099489 115.655552 
L 241.12858 115.655552 
L 241.12858 116.261664 
L 243.15767 116.261664 
L 243.15767 118.08 
L 243.15767 118.08 
" style="fill:none;stroke:#1f77b4;stroke-linejoin:miter;"/>
   </g>
   <g id="patch_4">
    <path clip-path="url(#p46397366e1)" d="M 41.263125 118.08 
L 41.263125 98.433488 
L 43.2663 98.433488 
L 43.2663 100.889302 
L 47.27265 100.889302 
L 47.27265 105.80093 
L 49.275826 105.80093 
L 49.275826 91.066047 
L 51.279001 91.066047 
L 51.279001 100.889302 
L 53.282176 100.889302 
L 53.282176 113.168372 
L 55.285351 113.168372 
L 55.285351 105.80093 
L 59.291701 105.80093 
L 59.291701 103.345116 
L 61.294876 103.345116 
L 61.294876 108.256744 
L 63.298051 108.256744 
L 63.298051 93.52186 
L 65.301227 93.52186 
L 65.301227 110.712558 
L 67.304402 110.712558 
L 67.304402 103.345116 
L 69.307577 103.345116 
L 69.307577 105.80093 
L 73.313927 105.80093 
L 73.313927 115.624186 
L 75.317102 115.624186 
L 75.317102 95.977674 
L 77.320277 95.977674 
L 77.320277 105.80093 
L 79.323453 105.80093 
L 79.323453 108.256744 
L 81.326628 108.256744 
L 81.326628 100.889302 
L 83.329803 100.889302 
L 83.329803 108.256744 
L 87.336153 108.256744 
L 87.336153 100.889302 
L 89.339328 100.889302 
L 89.339328 108.256744 
L 91.342503 108.256744 
L 91.342503 105.80093 
L 93.345678 105.80093 
L 93.345678 100.889302 
L 95.348854 100.889302 
L 95.348854 103.345116 
L 97.352029 103.345116 
L 97.352029 88.610233 
L 99.355204 88.610233 
L 99.355204 103.345116 
L 101.358379 103.345116 
L 101.358379 98.433488 
L 103.361554 98.433488 
L 103.361554 115.624186 
L 105.364729 115.624186 
L 105.364729 93.52186 
L 107.367904 93.52186 
L 107.367904 113.168372 
L 109.371079 113.168372 
L 109.371079 108.256744 
L 111.374255 108.256744 
L 111.374255 98.433488 
L 113.37743 98.433488 
L 113.37743 108.256744 
L 115.380605 108.256744 
L 115.380605 105.80093 
L 117.38378 105.80093 
L 117.38378 113.168372 
L 119.386955 113.168372 
L 119.386955 105.80093 
L 121.39013 105.80093 
L 121.39013 108.256744 
L 123.393305 108.256744 
L 123.393305 103.345116 
L 125.396481 103.345116 
L 125.396481 110.712558 
L 127.399656 110.712558 
L 127.399656 108.256744 
L 129.402831 108.256744 
L 129.402831 93.52186 
L 131.406006 93.52186 
L 131.406006 103.345116 
L 133.409181 103.345116 
L 133.409181 108.256744 
L 137.415531 108.256744 
L 137.415531 100.889302 
L 139.418706 100.889302 
L 139.418706 108.256744 
L 141.421882 108.256744 
L 141.421882 88.610233 
L 143.425057 88.610233 
L 143.425057 98.433488 
L 145.428232 98.433488 
L 145.428232 95.977674 
L 147.431407 95.977674 
L 147.431407 105.80093 
L 149.434582 105.80093 
L 149.434582 113.168372 
L 151.437757 113.168372 
L 151.437757 93.52186 
L 153.440932 93.52186 
L 153.440932 105.80093 
L 155.444108 105.80093 
L 155.444108 100.889302 
L 157.447283 100.889302 
L 157.447283 103.345116 
L 161.453633 103.345116 
L 161.453633 100.889302 
L 163.456808 100.889302 
L 163.456808 108.256744 
L 165.459983 108.256744 
L 165.459983 105.80093 
L 167.463158 105.80093 
L 167.463158 100.889302 
L 169.466333 100.889302 
L 169.466333 105.80093 
L 171.469509 105.80093 
L 171.469509 95.977674 
L 173.472684 95.977674 
L 173.472684 103.345116 
L 175.475859 103.345116 
L 175.475859 113.168372 
L 177.479034 113.168372 
L 177.479034 103.345116 
L 179.482209 103.345116 
L 179.482209 105.80093 
L 181.485384 105.80093 
L 181.485384 88.610233 
L 183.488559 88.610233 
L 183.488559 91.066047 
L 185.491735 91.066047 
L 185.491735 88.610233 
L 187.49491 88.610233 
L 187.49491 81.242791 
L 189.498085 81.242791 
L 189.498085 83.698605 
L 191.50126 83.698605 
L 191.50126 59.140465 
L 193.504435 59.140465 
L 193.504435 64.052093 
L 195.50761 64.052093 
L 195.50761 49.317209 
L 197.510785 49.317209 
L 197.510785 37.03814 
L 199.51396 37.03814 
L 199.51396 46.861395 
L 203.520311 46.861395 
L 203.520311 12.48 
L 205.523486 12.48 
L 205.523486 14.935814 
L 207.526661 14.935814 
L 207.526661 32.126512 
L 209.529836 32.126512 
L 209.529836 27.214884 
L 211.533011 27.214884 
L 211.533011 54.228837 
L 213.536186 54.228837 
L 213.536186 39.493953 
L 215.539361 39.493953 
L 215.539361 32.126512 
L 217.542537 32.126512 
L 217.542537 29.670698 
L 219.545712 29.670698 
L 219.545712 64.052093 
L 223.552062 64.052093 
L 223.552062 88.610233 
L 225.555237 88.610233 
L 225.555237 95.977674 
L 227.558412 95.977674 
L 227.558412 110.712558 
L 229.561587 110.712558 
L 229.561587 108.256744 
L 231.564763 108.256744 
L 231.564763 115.624186 
L 233.567938 115.624186 
L 233.567938 113.168372 
L 235.571113 113.168372 
L 235.571113 105.80093 
L 237.574288 105.80093 
L 237.574288 118.08 
L 239.577463 118.08 
L 239.577463 115.624186 
L 241.580638 115.624186 
L 241.580638 118.08 
L 241.580638 118.08 
" style="fill:none;stroke:#ff7f0e;stroke-linejoin:miter;"/>
   </g>
   <g id="patch_5">
    <path d="M 30.103125 118.08 
L 30.103125 7.2 
" style="fill:none;stroke:#000000;stroke-linecap:square;stroke-linejoin:miter;stroke-width:0.8;"/>
   </g>
   <g id="patch_6">
    <path d="M 253.303125 118.08 
L 253.303125 7.2 
" style="fill:none;stroke:#000000;stroke-linecap:square;stroke-linejoin:miter;stroke-width:0.8;"/>
   </g>
   <g id="patch_7">
    <path d="M 30.103125 118.08 
L 253.303125 118.08 
" style="fill:none;stroke:#000000;stroke-linecap:square;stroke-linejoin:miter;stroke-width:0.8;"/>
   </g>
   <g id="patch_8">
    <path d="M 30.103125 7.2 
L 253.303125 7.2 
" style="fill:none;stroke:#000000;stroke-linecap:square;stroke-linejoin:miter;stroke-width:0.8;"/>
   </g>
  </g>
 </g>
 <defs>
  <clipPath id="p46397366e1">
   <rect height="110.88" width="223.2" x="30.103125" y="7.2"/>
  </clipPath>
 </defs>
</svg>
