<?xml version="1.0" encoding="utf-8" standalone="no"?>
<!DOCTYPE svg PUBLIC "-//W3C//DTD SVG 1.1//EN"
  "http://www.w3.org/Graphics/SVG/1.1/DTD/svg11.dtd">
<svg height="141.400312pt" version="1.1" viewBox="0 0 259.054826 141.400312" width="259.054826pt" xmlns="http://www.w3.org/2000/svg" xmlns:xlink="http://www.w3.org/1999/xlink">
 <metadata>
  <rdf:RDF xmlns:cc="http://creativecommons.org/ns#" xmlns:dc="http://purl.org/dc/elements/1.1/" xmlns:rdf="http://www.w3.org/1999/02/22-rdf-syntax-ns#">
   <cc:Work>
    <dc:type rdf:resource="http://purl.org/dc/dcmitype/StillImage"/>
    <dc:date>2021-09-06T13:26:40.321673</dc:date>
    <dc:format>image/svg+xml</dc:format>
    <dc:creator>
     <cc:Agent>
      <dc:title>Matplotlib v3.4.2, https://matplotlib.org/</dc:title>
     </cc:Agent>
    </dc:creator>
   </cc:Work>
  </rdf:RDF>
 </metadata>
 <defs>
  <style type="text/css">*{stroke-linecap:butt;stroke-linejoin:round;}</style>
 </defs>
 <g id="figure_1">
  <g id="patch_1">
   <path d="M 0 141.400312 
L 259.054826 141.400312 
L 259.054826 0 
L 0 0 
z
" style="fill:#ffffff;"/>
  </g>
  <g id="axes_1">
   <g id="patch_2">
    <path d="M 26.348438 119.83 
L 249.548437 119.83 
L 249.548437 8.95 
L 26.348438 8.95 
z
" style="fill:#ffffff;"/>
   </g>
   <g id="matplotlib.axis_1">
    <g id="xtick_1">
     <g id="line2d_1">
      <defs>
       <path d="M 0 1.75 
L 0 -1.75 
" id="m395b3a291d" style="stroke:#000000;stroke-width:0.8;"/>
      </defs>
      <g>
       <use style="stroke:#000000;stroke-width:0.8;" x="36.271349" xlink:href="#m395b3a291d" y="119.83"/>
      </g>
     </g>
     <g id="line2d_2">
      <g>
       <use style="stroke:#000000;stroke-width:0.8;" x="36.271349" xlink:href="#m395b3a291d" y="8.95"/>
      </g>
     </g>
     <g id="text_1">
      <!-- 0 -->
      <g transform="translate(33.491662 132.220625)scale(0.1 -0.1)">
       <defs>
        <path d="M 269 2227 
C 269 1229 358 -77 1779 -77 
C 3200 -77 3290 1229 3290 2227 
C 3290 3232 3200 4538 1779 4538 
C 358 4538 269 3232 269 2227 
z
M 845 2234 
C 845 2906 851 4058 1779 4058 
C 2707 4058 2714 2906 2714 2234 
C 2714 1555 2707 403 1779 403 
C 851 403 845 1555 845 2234 
z
" id="HelveticaNeue-Roman-30" transform="scale(0.015625)"/>
       </defs>
       <use xlink:href="#HelveticaNeue-Roman-30"/>
      </g>
     </g>
    </g>
    <g id="xtick_2">
     <g id="line2d_3">
      <g>
       <use style="stroke:#000000;stroke-width:0.8;" x="89.472296" xlink:href="#m395b3a291d" y="119.83"/>
      </g>
     </g>
     <g id="line2d_4">
      <g>
       <use style="stroke:#000000;stroke-width:0.8;" x="89.472296" xlink:href="#m395b3a291d" y="8.95"/>
      </g>
     </g>
     <g id="text_2">
      <!-- 1 -->
      <g transform="translate(86.692609 132.220625)scale(0.1 -0.1)">
       <defs>
        <path d="M 2278 4538 
L 1862 4538 
C 1741 3853 1178 3686 557 3686 
L 557 3251 
L 1734 3251 
L 1734 0 
L 2278 0 
L 2278 4538 
z
" id="HelveticaNeue-Roman-31" transform="scale(0.015625)"/>
       </defs>
       <use xlink:href="#HelveticaNeue-Roman-31"/>
      </g>
     </g>
    </g>
    <g id="xtick_3">
     <g id="line2d_5">
      <g>
       <use style="stroke:#000000;stroke-width:0.8;" x="142.673244" xlink:href="#m395b3a291d" y="119.83"/>
      </g>
     </g>
     <g id="line2d_6">
      <g>
       <use style="stroke:#000000;stroke-width:0.8;" x="142.673244" xlink:href="#m395b3a291d" y="8.95"/>
      </g>
     </g>
     <g id="text_3">
      <!-- 2 -->
      <g transform="translate(139.893556 132.220625)scale(0.1 -0.1)">
       <defs>
        <path d="M 826 2931 
C 806 3475 1075 4058 1709 4058 
C 2189 4058 2586 3731 2586 3238 
C 2586 2611 2195 2330 1427 1856 
C 787 1459 243 1075 154 0 
L 3117 0 
L 3117 480 
L 787 480 
C 896 1043 1491 1331 2061 1677 
C 2624 2029 3162 2432 3162 3232 
C 3162 4077 2534 4538 1741 4538 
C 781 4538 237 3853 282 2931 
L 826 2931 
z
" id="HelveticaNeue-Roman-32" transform="scale(0.015625)"/>
       </defs>
       <use xlink:href="#HelveticaNeue-Roman-32"/>
      </g>
     </g>
    </g>
    <g id="xtick_4">
     <g id="line2d_7">
      <g>
       <use style="stroke:#000000;stroke-width:0.8;" x="195.874191" xlink:href="#m395b3a291d" y="119.83"/>
      </g>
     </g>
     <g id="line2d_8">
      <g>
       <use style="stroke:#000000;stroke-width:0.8;" x="195.874191" xlink:href="#m395b3a291d" y="8.95"/>
      </g>
     </g>
     <g id="text_4">
      <!-- 3 -->
      <g transform="translate(193.094503 132.220625)scale(0.1 -0.1)">
       <defs>
        <path d="M 1395 2131 
C 1498 2144 1613 2150 1722 2150 
C 2259 2150 2688 1850 2688 1280 
C 2688 730 2234 403 1702 403 
C 1082 403 755 813 736 1402 
L 192 1402 
C 173 467 781 -77 1702 -77 
C 2554 -77 3264 397 3264 1306 
C 3264 1850 2995 2285 2445 2406 
L 2445 2419 
C 2790 2579 3072 2925 3072 3322 
C 3072 4160 2477 4538 1690 4538 
C 781 4538 320 3936 288 3072 
L 832 3072 
C 838 3603 1094 4058 1690 4058 
C 2150 4058 2496 3802 2496 3328 
C 2496 2835 2093 2586 1632 2586 
C 1555 2586 1478 2586 1395 2592 
L 1395 2131 
z
" id="HelveticaNeue-Roman-33" transform="scale(0.015625)"/>
       </defs>
       <use xlink:href="#HelveticaNeue-Roman-33"/>
      </g>
     </g>
    </g>
    <g id="xtick_5">
     <g id="line2d_9">
      <g>
       <use style="stroke:#000000;stroke-width:0.8;" x="249.075138" xlink:href="#m395b3a291d" y="119.83"/>
      </g>
     </g>
     <g id="line2d_10">
      <g>
       <use style="stroke:#000000;stroke-width:0.8;" x="249.075138" xlink:href="#m395b3a291d" y="8.95"/>
      </g>
     </g>
     <g id="text_5">
      <!-- 4 -->
      <g transform="translate(246.295451 132.220625)scale(0.1 -0.1)">
       <defs>
        <path d="M 2682 4538 
L 2246 4538 
L 179 1587 
L 179 1062 
L 2170 1062 
L 2170 0 
L 2682 0 
L 2682 1062 
L 3296 1062 
L 3296 1542 
L 2682 1542 
L 2682 4538 
z
M 646 1542 
L 2157 3763 
L 2170 3763 
L 2170 1542 
L 646 1542 
z
" id="HelveticaNeue-Roman-34" transform="scale(0.015625)"/>
       </defs>
       <use xlink:href="#HelveticaNeue-Roman-34"/>
      </g>
     </g>
    </g>
   </g>
   <g id="matplotlib.axis_2">
    <g id="ytick_1">
     <g id="line2d_11">
      <defs>
       <path d="M 1.75 0 
L -1.75 -0 
" id="m2934aeba56" style="stroke:#000000;stroke-width:0.8;"/>
      </defs>
      <g>
       <use style="stroke:#000000;stroke-width:0.8;" x="26.348438" xlink:href="#m2934aeba56" y="119.83"/>
      </g>
     </g>
     <g id="line2d_12">
      <g>
       <use style="stroke:#000000;stroke-width:0.8;" x="249.548437" xlink:href="#m2934aeba56" y="119.83"/>
      </g>
     </g>
     <g id="text_6">
      <!-- 0.0 -->
      <g transform="translate(7.2 123.400312)scale(0.1 -0.1)">
       <defs>
        <path d="M 531 0 
L 1242 0 
L 1242 710 
L 531 710 
L 531 0 
z
" id="HelveticaNeue-Roman-2e" transform="scale(0.015625)"/>
       </defs>
       <use xlink:href="#HelveticaNeue-Roman-30"/>
       <use x="55.599991" xlink:href="#HelveticaNeue-Roman-2e"/>
       <use x="83.399979" xlink:href="#HelveticaNeue-Roman-30"/>
      </g>
     </g>
    </g>
    <g id="ytick_2">
     <g id="line2d_13">
      <g>
       <use style="stroke:#000000;stroke-width:0.8;" x="26.348438" xlink:href="#m2934aeba56" y="75.799499"/>
      </g>
     </g>
     <g id="line2d_14">
      <g>
       <use style="stroke:#000000;stroke-width:0.8;" x="249.548437" xlink:href="#m2934aeba56" y="75.799499"/>
      </g>
     </g>
     <g id="text_7">
      <!-- 0.5 -->
      <g transform="translate(7.2 79.369812)scale(0.1 -0.1)">
       <defs>
        <path d="M 3008 4461 
L 768 4461 
L 346 2106 
L 813 2080 
C 1024 2336 1312 2509 1658 2509 
C 2266 2509 2682 2080 2682 1478 
C 2682 755 2240 403 1722 403 
C 1178 403 800 755 768 1222 
L 224 1222 
C 243 403 883 -77 1670 -77 
C 2726 -77 3258 666 3258 1434 
C 3258 2470 2598 2989 1792 2989 
C 1485 2989 1146 2886 947 2662 
L 934 2675 
L 1178 3981 
L 3008 3981 
L 3008 4461 
z
" id="HelveticaNeue-Roman-35" transform="scale(0.015625)"/>
       </defs>
       <use xlink:href="#HelveticaNeue-Roman-30"/>
       <use x="55.599991" xlink:href="#HelveticaNeue-Roman-2e"/>
       <use x="83.399979" xlink:href="#HelveticaNeue-Roman-35"/>
      </g>
     </g>
    </g>
    <g id="ytick_3">
     <g id="line2d_15">
      <g>
       <use style="stroke:#000000;stroke-width:0.8;" x="26.348438" xlink:href="#m2934aeba56" y="31.768999"/>
      </g>
     </g>
     <g id="line2d_16">
      <g>
       <use style="stroke:#000000;stroke-width:0.8;" x="249.548437" xlink:href="#m2934aeba56" y="31.768999"/>
      </g>
     </g>
     <g id="text_8">
      <!-- 1.0 -->
      <g transform="translate(7.2 35.339311)scale(0.1 -0.1)">
       <use xlink:href="#HelveticaNeue-Roman-31"/>
       <use x="55.599991" xlink:href="#HelveticaNeue-Roman-2e"/>
       <use x="83.399979" xlink:href="#HelveticaNeue-Roman-30"/>
      </g>
     </g>
    </g>
   </g>
   <g id="patch_3">
    <path clip-path="url(#p2d24f7c8f2)" d="M 36.493892 119.83 
L 36.493892 105.976716 
L 38.522983 105.976716 
L 38.522983 103.667836 
L 40.552074 103.667836 
L 40.552074 103.090615 
L 42.581165 103.090615 
L 42.581165 106.553936 
L 46.639347 106.553936 
L 46.639347 103.090615 
L 48.668438 103.090615 
L 48.668438 108.285597 
L 50.697528 108.285597 
L 50.697528 102.513395 
L 52.726619 102.513395 
L 52.726619 103.667836 
L 54.75571 103.667836 
L 54.75571 105.399496 
L 56.784801 105.399496 
L 56.784801 105.976716 
L 58.813892 105.976716 
L 58.813892 103.090615 
L 60.842983 103.090615 
L 60.842983 104.822276 
L 64.901165 104.822276 
L 64.901165 103.090615 
L 66.930256 103.090615 
L 66.930256 109.440037 
L 68.959347 109.440037 
L 68.959347 103.667836 
L 70.988438 103.667836 
L 70.988438 101.358955 
L 73.017528 101.358955 
L 73.017528 104.822276 
L 75.046619 104.822276 
L 75.046619 103.090615 
L 77.07571 103.090615 
L 77.07571 105.976716 
L 79.104801 105.976716 
L 79.104801 101.936175 
L 81.133892 101.936175 
L 81.133892 107.708377 
L 83.162983 107.708377 
L 83.162983 108.862817 
L 85.192074 108.862817 
L 85.192074 104.245056 
L 87.221165 104.245056 
L 87.221165 107.131157 
L 91.279347 107.131157 
L 91.279347 100.204515 
L 93.308437 100.204515 
L 93.308437 101.936175 
L 95.337528 101.936175 
L 95.337528 103.667836 
L 97.366619 103.667836 
L 97.366619 103.090615 
L 99.39571 103.090615 
L 99.39571 104.245056 
L 101.424801 104.245056 
L 101.424801 103.090615 
L 103.453892 103.090615 
L 103.453892 108.862817 
L 105.482983 108.862817 
L 105.482983 107.708377 
L 107.512074 107.708377 
L 107.512074 109.440037 
L 109.541165 109.440037 
L 109.541165 107.131157 
L 111.570256 107.131157 
L 111.570256 107.708377 
L 113.599347 107.708377 
L 113.599347 111.171698 
L 115.628438 111.171698 
L 115.628438 102.513395 
L 117.657528 102.513395 
L 117.657528 104.245056 
L 119.686619 104.245056 
L 119.686619 101.936175 
L 121.71571 101.936175 
L 121.71571 106.553936 
L 123.744801 106.553936 
L 123.744801 101.358955 
L 125.773892 101.358955 
L 125.773892 103.090615 
L 127.802983 103.090615 
L 127.802983 103.667836 
L 129.832074 103.667836 
L 129.832074 106.553936 
L 131.861165 106.553936 
L 131.861165 112.903358 
L 133.890256 112.903358 
L 133.890256 109.440037 
L 135.919347 109.440037 
L 135.919347 108.862817 
L 137.948438 108.862817 
L 137.948438 103.667836 
L 139.977528 103.667836 
L 139.977528 101.358955 
L 142.006619 101.358955 
L 142.006619 107.131157 
L 144.03571 107.131157 
L 144.03571 102.513395 
L 146.064801 102.513395 
L 146.064801 103.090615 
L 148.093892 103.090615 
L 148.093892 101.358955 
L 150.122983 101.358955 
L 150.122983 108.285597 
L 152.152074 108.285597 
L 152.152074 106.553936 
L 154.181165 106.553936 
L 154.181165 102.513395 
L 156.210256 102.513395 
L 156.210256 104.245056 
L 158.239347 104.245056 
L 158.239347 105.399496 
L 160.268437 105.399496 
L 160.268437 108.862817 
L 162.297528 108.862817 
L 162.297528 107.131157 
L 164.326619 107.131157 
L 164.326619 105.399496 
L 166.35571 105.399496 
L 166.35571 99.627295 
L 168.384801 99.627295 
L 168.384801 100.204515 
L 170.413892 100.204515 
L 170.413892 97.895634 
L 172.442983 97.895634 
L 172.442983 89.237332 
L 174.472074 89.237332 
L 174.472074 95.009533 
L 176.501165 95.009533 
L 176.501165 88.082891 
L 178.530256 88.082891 
L 178.530256 75.384048 
L 180.559347 75.384048 
L 180.559347 62.107984 
L 182.588437 62.107984 
L 182.588437 61.530764 
L 184.617528 61.530764 
L 184.617528 44.79138 
L 186.646619 44.79138 
L 186.646619 37.864738 
L 188.67571 37.864738 
L 188.67571 33.246977 
L 190.704801 33.246977 
L 190.704801 36.710297 
L 192.733892 36.710297 
L 192.733892 16.507592 
L 194.762983 16.507592 
L 194.762983 19.970913 
L 196.792074 19.970913 
L 196.792074 41.905279 
L 198.821165 41.905279 
L 198.821165 37.864738 
L 200.850256 37.864738 
L 200.850256 45.94582 
L 202.879347 45.94582 
L 202.879347 54.026902 
L 204.908437 54.026902 
L 204.908437 60.376324 
L 206.937528 60.376324 
L 206.937528 72.497947 
L 208.966619 72.497947 
L 208.966619 80.579029 
L 210.99571 80.579029 
L 210.99571 91.546212 
L 213.024801 91.546212 
L 213.024801 99.050074 
L 215.053892 99.050074 
L 215.053892 106.553936 
L 217.082983 106.553936 
L 217.082983 109.440037 
L 219.112074 109.440037 
L 219.112074 112.903358 
L 221.141165 112.903358 
L 221.141165 117.521119 
L 223.170256 117.521119 
L 223.170256 118.09834 
L 225.199347 118.09834 
L 225.199347 117.521119 
L 227.228437 117.521119 
L 227.228437 119.25278 
L 231.286619 119.25278 
L 231.286619 119.83 
L 237.373892 119.83 
L 237.373892 119.25278 
L 239.402983 119.25278 
L 239.402983 119.83 
L 239.402983 119.83 
" style="fill:none;stroke:#008fd5;stroke-linejoin:miter;"/>
   </g>
   <g id="patch_4">
    <path clip-path="url(#p2d24f7c8f2)" d="M 37.508438 119.83 
L 37.508438 87.904419 
L 41.323815 87.904419 
L 41.323815 107.55093 
L 43.231504 107.55093 
L 43.231504 112.462558 
L 45.139193 112.462558 
L 45.139193 105.095116 
L 47.046881 105.095116 
L 47.046881 112.462558 
L 48.95457 112.462558 
L 48.95457 107.55093 
L 50.862259 107.55093 
L 50.862259 105.095116 
L 52.769948 105.095116 
L 52.769948 112.462558 
L 54.677636 112.462558 
L 54.677636 107.55093 
L 58.493014 107.55093 
L 58.493014 100.183488 
L 60.400703 100.183488 
L 60.400703 112.462558 
L 64.21608 112.462558 
L 64.21608 102.639302 
L 66.123769 102.639302 
L 66.123769 112.462558 
L 68.031458 112.462558 
L 68.031458 105.095116 
L 71.846835 105.095116 
L 71.846835 110.006744 
L 73.754524 110.006744 
L 73.754524 100.183488 
L 75.662213 100.183488 
L 75.662213 110.006744 
L 77.569902 110.006744 
L 77.569902 100.183488 
L 79.47759 100.183488 
L 79.47759 114.918372 
L 81.385279 114.918372 
L 81.385279 100.183488 
L 83.292968 100.183488 
L 83.292968 112.462558 
L 85.200657 112.462558 
L 85.200657 107.55093 
L 87.108345 107.55093 
L 87.108345 100.183488 
L 89.016034 100.183488 
L 89.016034 114.918372 
L 90.923723 114.918372 
L 90.923723 105.095116 
L 92.831412 105.095116 
L 92.831412 92.816047 
L 96.646789 92.816047 
L 96.646789 100.183488 
L 98.554478 100.183488 
L 98.554478 107.55093 
L 102.369855 107.55093 
L 102.369855 110.006744 
L 104.277544 110.006744 
L 104.277544 117.374186 
L 106.185233 117.374186 
L 106.185233 102.639302 
L 110.000611 102.639302 
L 110.000611 107.55093 
L 111.908299 107.55093 
L 111.908299 100.183488 
L 113.815988 100.183488 
L 113.815988 112.462558 
L 115.723677 112.462558 
L 115.723677 110.006744 
L 117.631366 110.006744 
L 117.631366 107.55093 
L 119.539054 107.55093 
L 119.539054 100.183488 
L 121.446743 100.183488 
L 121.446743 92.816047 
L 123.354432 92.816047 
L 123.354432 102.639302 
L 125.262121 102.639302 
L 125.262121 112.462558 
L 127.169809 112.462558 
L 127.169809 97.727674 
L 129.077498 97.727674 
L 129.077498 107.55093 
L 130.985187 107.55093 
L 130.985187 114.918372 
L 134.800564 114.918372 
L 134.800564 107.55093 
L 136.708253 107.55093 
L 136.708253 97.727674 
L 138.615942 97.727674 
L 138.615942 105.095116 
L 140.523631 105.095116 
L 140.523631 102.639302 
L 142.43132 102.639302 
L 142.43132 105.095116 
L 144.339008 105.095116 
L 144.339008 102.639302 
L 148.154386 102.639302 
L 148.154386 110.006744 
L 150.062075 110.006744 
L 150.062075 112.462558 
L 151.969763 112.462558 
L 151.969763 100.183488 
L 153.877452 100.183488 
L 153.877452 105.095116 
L 155.785141 105.095116 
L 155.785141 102.639302 
L 157.69283 102.639302 
L 157.69283 112.462558 
L 159.600518 112.462558 
L 159.600518 110.006744 
L 161.508207 110.006744 
L 161.508207 102.639302 
L 163.415896 102.639302 
L 163.415896 95.27186 
L 165.323585 95.27186 
L 165.323585 92.816047 
L 167.231273 92.816047 
L 167.231273 95.27186 
L 169.138962 95.27186 
L 169.138962 105.095116 
L 171.046651 105.095116 
L 171.046651 100.183488 
L 172.95434 100.183488 
L 172.95434 95.27186 
L 174.862029 95.27186 
L 174.862029 102.639302 
L 176.769717 102.639302 
L 176.769717 92.816047 
L 178.677406 92.816047 
L 178.677406 70.713721 
L 180.585095 70.713721 
L 180.585095 78.081163 
L 182.492784 78.081163 
L 182.492784 41.243953 
L 184.400472 41.243953 
L 184.400472 38.78814 
L 186.308161 38.78814 
L 186.308161 46.155581 
L 188.21585 46.155581 
L 188.21585 38.78814 
L 190.123539 38.78814 
L 190.123539 21.597442 
L 192.031227 21.597442 
L 192.031227 14.23 
L 193.938916 14.23 
L 193.938916 16.685814 
L 195.846605 16.685814 
L 195.846605 28.964884 
L 197.754294 28.964884 
L 197.754294 38.78814 
L 199.661982 38.78814 
L 199.661982 16.685814 
L 201.569671 16.685814 
L 201.569671 41.243953 
L 203.47736 41.243953 
L 203.47736 70.713721 
L 205.385049 70.713721 
L 205.385049 60.890465 
L 207.292738 60.890465 
L 207.292738 82.992791 
L 209.200426 82.992791 
L 209.200426 70.713721 
L 211.108115 70.713721 
L 211.108115 95.27186 
L 214.923493 95.27186 
L 214.923493 105.095116 
L 216.831181 105.095116 
L 216.831181 114.918372 
L 222.554248 114.918372 
L 222.554248 119.83 
L 226.369625 119.83 
L 226.369625 117.374186 
L 228.277314 117.374186 
L 228.277314 119.83 
L 228.277314 119.83 
" style="fill:none;stroke:#fc4f30;stroke-linejoin:miter;"/>
   </g>
   <g id="patch_5">
    <path d="M 26.348438 119.83 
L 26.348438 8.95 
" style="fill:none;stroke:#000000;stroke-linecap:square;stroke-linejoin:miter;stroke-width:0.8;"/>
   </g>
   <g id="patch_6">
    <path d="M 249.548437 119.83 
L 249.548437 8.95 
" style="fill:none;stroke:#000000;stroke-linecap:square;stroke-linejoin:miter;stroke-width:0.8;"/>
   </g>
   <g id="patch_7">
    <path d="M 26.348438 119.83 
L 249.548437 119.83 
" style="fill:none;stroke:#000000;stroke-linecap:square;stroke-linejoin:miter;stroke-width:0.8;"/>
   </g>
   <g id="patch_8">
    <path d="M 26.348438 8.95 
L 249.548437 8.95 
" style="fill:none;stroke:#000000;stroke-linecap:square;stroke-linejoin:miter;stroke-width:0.8;"/>
   </g>
  </g>
 </g>
 <defs>
  <clipPath id="p2d24f7c8f2">
   <rect height="110.88" width="223.2" x="26.348438" y="8.95"/>
  </clipPath>
 </defs>
</svg>
