<?xml version="1.0" encoding="utf-8" standalone="no"?>
<!DOCTYPE svg PUBLIC "-//W3C//DTD SVG 1.1//EN"
  "http://www.w3.org/Graphics/SVG/1.1/DTD/svg11.dtd">
<svg height="141.958125pt" version="1.1" viewBox="0 0 263.6875 141.958125" width="263.6875pt" xmlns="http://www.w3.org/2000/svg" xmlns:xlink="http://www.w3.org/1999/xlink">
 <metadata>
  <rdf:RDF xmlns:cc="http://creativecommons.org/ns#" xmlns:dc="http://purl.org/dc/elements/1.1/" xmlns:rdf="http://www.w3.org/1999/02/22-rdf-syntax-ns#">
   <cc:Work>
    <dc:type rdf:resource="http://purl.org/dc/dcmitype/StillImage"/>
    <dc:date>2021-07-21T12:15:18.872541</dc:date>
    <dc:format>image/svg+xml</dc:format>
    <dc:creator>
     <cc:Agent>
      <dc:title>Matplotlib v3.4.2, https://matplotlib.org/</dc:title>
     </cc:Agent>
    </dc:creator>
   </cc:Work>
  </rdf:RDF>
 </metadata>
 <defs>
  <style type="text/css">*{stroke-linecap:butt;stroke-linejoin:round;}</style>
 </defs>
 <g id="figure_1">
  <g id="patch_1">
   <path d="M 0 141.958125 
L 263.6875 141.958125 
L 263.6875 0 
L 0 0 
z
" style="fill:#ffffff;"/>
  </g>
  <g id="axes_1">
   <g id="patch_2">
    <path d="M 33.2875 118.08 
L 256.4875 118.08 
L 256.4875 7.2 
L 33.2875 7.2 
z
" style="fill:#ffffff;"/>
   </g>
   <g id="matplotlib.axis_1">
    <g id="xtick_1">
     <g id="line2d_1">
      <defs>
       <path d="M 0 0 
L 0 3.5 
" id="m83cc3333c1" style="stroke:#000000;stroke-width:0.8;"/>
      </defs>
      <g>
       <use style="stroke:#000000;stroke-width:0.8;" x="43.41987" xlink:href="#m83cc3333c1" y="118.08"/>
      </g>
     </g>
     <g id="text_1">
      <!-- 0 -->
      <g transform="translate(40.23862 132.678438)scale(0.1 -0.1)">
       <defs>
        <path d="M 2034 4250 
Q 1547 4250 1301 3770 
Q 1056 3291 1056 2328 
Q 1056 1369 1301 889 
Q 1547 409 2034 409 
Q 2525 409 2770 889 
Q 3016 1369 3016 2328 
Q 3016 3291 2770 3770 
Q 2525 4250 2034 4250 
z
M 2034 4750 
Q 2819 4750 3233 4129 
Q 3647 3509 3647 2328 
Q 3647 1150 3233 529 
Q 2819 -91 2034 -91 
Q 1250 -91 836 529 
Q 422 1150 422 2328 
Q 422 3509 836 4129 
Q 1250 4750 2034 4750 
z
" id="DejaVuSans-30" transform="scale(0.015625)"/>
       </defs>
       <use xlink:href="#DejaVuSans-30"/>
      </g>
     </g>
    </g>
    <g id="xtick_2">
     <g id="line2d_2">
      <g>
       <use style="stroke:#000000;stroke-width:0.8;" x="99.96281" xlink:href="#m83cc3333c1" y="118.08"/>
      </g>
     </g>
     <g id="text_2">
      <!-- 1 -->
      <g transform="translate(96.78156 132.678438)scale(0.1 -0.1)">
       <defs>
        <path d="M 794 531 
L 1825 531 
L 1825 4091 
L 703 3866 
L 703 4441 
L 1819 4666 
L 2450 4666 
L 2450 531 
L 3481 531 
L 3481 0 
L 794 0 
L 794 531 
z
" id="DejaVuSans-31" transform="scale(0.015625)"/>
       </defs>
       <use xlink:href="#DejaVuSans-31"/>
      </g>
     </g>
    </g>
    <g id="xtick_3">
     <g id="line2d_3">
      <g>
       <use style="stroke:#000000;stroke-width:0.8;" x="156.505749" xlink:href="#m83cc3333c1" y="118.08"/>
      </g>
     </g>
     <g id="text_3">
      <!-- 2 -->
      <g transform="translate(153.324499 132.678438)scale(0.1 -0.1)">
       <defs>
        <path d="M 1228 531 
L 3431 531 
L 3431 0 
L 469 0 
L 469 531 
Q 828 903 1448 1529 
Q 2069 2156 2228 2338 
Q 2531 2678 2651 2914 
Q 2772 3150 2772 3378 
Q 2772 3750 2511 3984 
Q 2250 4219 1831 4219 
Q 1534 4219 1204 4116 
Q 875 4013 500 3803 
L 500 4441 
Q 881 4594 1212 4672 
Q 1544 4750 1819 4750 
Q 2544 4750 2975 4387 
Q 3406 4025 3406 3419 
Q 3406 3131 3298 2873 
Q 3191 2616 2906 2266 
Q 2828 2175 2409 1742 
Q 1991 1309 1228 531 
z
" id="DejaVuSans-32" transform="scale(0.015625)"/>
       </defs>
       <use xlink:href="#DejaVuSans-32"/>
      </g>
     </g>
    </g>
    <g id="xtick_4">
     <g id="line2d_4">
      <g>
       <use style="stroke:#000000;stroke-width:0.8;" x="213.048689" xlink:href="#m83cc3333c1" y="118.08"/>
      </g>
     </g>
     <g id="text_4">
      <!-- 3 -->
      <g transform="translate(209.867439 132.678438)scale(0.1 -0.1)">
       <defs>
        <path d="M 2597 2516 
Q 3050 2419 3304 2112 
Q 3559 1806 3559 1356 
Q 3559 666 3084 287 
Q 2609 -91 1734 -91 
Q 1441 -91 1130 -33 
Q 819 25 488 141 
L 488 750 
Q 750 597 1062 519 
Q 1375 441 1716 441 
Q 2309 441 2620 675 
Q 2931 909 2931 1356 
Q 2931 1769 2642 2001 
Q 2353 2234 1838 2234 
L 1294 2234 
L 1294 2753 
L 1863 2753 
Q 2328 2753 2575 2939 
Q 2822 3125 2822 3475 
Q 2822 3834 2567 4026 
Q 2313 4219 1838 4219 
Q 1578 4219 1281 4162 
Q 984 4106 628 3988 
L 628 4550 
Q 988 4650 1302 4700 
Q 1616 4750 1894 4750 
Q 2613 4750 3031 4423 
Q 3450 4097 3450 3541 
Q 3450 3153 3228 2886 
Q 3006 2619 2597 2516 
z
" id="DejaVuSans-33" transform="scale(0.015625)"/>
       </defs>
       <use xlink:href="#DejaVuSans-33"/>
      </g>
     </g>
    </g>
   </g>
   <g id="matplotlib.axis_2">
    <g id="ytick_1">
     <g id="line2d_5">
      <defs>
       <path d="M 0 0 
L -3.5 0 
" id="m4ee155894e" style="stroke:#000000;stroke-width:0.8;"/>
      </defs>
      <g>
       <use style="stroke:#000000;stroke-width:0.8;" x="33.2875" xlink:href="#m4ee155894e" y="118.08"/>
      </g>
     </g>
     <g id="text_5">
      <!-- 0 -->
      <g transform="translate(19.925 121.879219)scale(0.1 -0.1)">
       <use xlink:href="#DejaVuSans-30"/>
      </g>
     </g>
    </g>
    <g id="ytick_2">
     <g id="line2d_6">
      <g>
       <use style="stroke:#000000;stroke-width:0.8;" x="33.2875" xlink:href="#m4ee155894e" y="84.872453"/>
      </g>
     </g>
     <g id="text_6">
      <!-- 50 -->
      <g transform="translate(13.5625 88.671672)scale(0.1 -0.1)">
       <defs>
        <path d="M 691 4666 
L 3169 4666 
L 3169 4134 
L 1269 4134 
L 1269 2991 
Q 1406 3038 1543 3061 
Q 1681 3084 1819 3084 
Q 2600 3084 3056 2656 
Q 3513 2228 3513 1497 
Q 3513 744 3044 326 
Q 2575 -91 1722 -91 
Q 1428 -91 1123 -41 
Q 819 9 494 109 
L 494 744 
Q 775 591 1075 516 
Q 1375 441 1709 441 
Q 2250 441 2565 725 
Q 2881 1009 2881 1497 
Q 2881 1984 2565 2268 
Q 2250 2553 1709 2553 
Q 1456 2553 1204 2497 
Q 953 2441 691 2322 
L 691 4666 
z
" id="DejaVuSans-35" transform="scale(0.015625)"/>
       </defs>
       <use xlink:href="#DejaVuSans-35"/>
       <use x="63.623047" xlink:href="#DejaVuSans-30"/>
      </g>
     </g>
    </g>
    <g id="ytick_3">
     <g id="line2d_7">
      <g>
       <use style="stroke:#000000;stroke-width:0.8;" x="33.2875" xlink:href="#m4ee155894e" y="51.664906"/>
      </g>
     </g>
     <g id="text_7">
      <!-- 100 -->
      <g transform="translate(7.2 55.464124)scale(0.1 -0.1)">
       <use xlink:href="#DejaVuSans-31"/>
       <use x="63.623047" xlink:href="#DejaVuSans-30"/>
       <use x="127.246094" xlink:href="#DejaVuSans-30"/>
      </g>
     </g>
    </g>
    <g id="ytick_4">
     <g id="line2d_8">
      <g>
       <use style="stroke:#000000;stroke-width:0.8;" x="33.2875" xlink:href="#m4ee155894e" y="18.457358"/>
      </g>
     </g>
     <g id="text_8">
      <!-- 150 -->
      <g transform="translate(7.2 22.256577)scale(0.1 -0.1)">
       <use xlink:href="#DejaVuSans-31"/>
       <use x="63.623047" xlink:href="#DejaVuSans-35"/>
       <use x="127.246094" xlink:href="#DejaVuSans-30"/>
      </g>
     </g>
    </g>
   </g>
   <g id="patch_3">
    <path clip-path="url(#p690259f09d)" d="M 43.432955 118.08 
L 43.432955 99.483774 
L 45.462045 99.483774 
L 45.462045 98.819623 
L 47.491136 98.819623 
L 47.491136 100.812075 
L 49.520227 100.812075 
L 49.520227 104.796981 
L 53.578409 104.796981 
L 53.578409 104.13283 
L 55.6075 104.13283 
L 55.6075 102.140377 
L 57.636591 102.140377 
L 57.636591 103.468679 
L 61.694773 103.468679 
L 61.694773 97.491321 
L 63.723864 97.491321 
L 63.723864 102.804528 
L 65.752955 102.804528 
L 65.752955 110.110189 
L 67.782045 110.110189 
L 67.782045 102.804528 
L 69.811136 102.804528 
L 69.811136 104.796981 
L 71.840227 104.796981 
L 71.840227 100.812075 
L 73.869318 100.812075 
L 73.869318 103.468679 
L 75.898409 103.468679 
L 75.898409 105.461132 
L 77.9275 105.461132 
L 77.9275 107.453585 
L 79.956591 107.453585 
L 79.956591 97.491321 
L 81.985682 97.491321 
L 81.985682 103.468679 
L 84.014773 103.468679 
L 84.014773 105.461132 
L 86.043864 105.461132 
L 86.043864 102.804528 
L 88.072955 102.804528 
L 88.072955 101.476226 
L 90.102045 101.476226 
L 90.102045 106.125283 
L 92.131136 106.125283 
L 92.131136 100.147925 
L 94.160227 100.147925 
L 94.160227 99.483774 
L 96.189318 99.483774 
L 96.189318 102.140377 
L 98.218409 102.140377 
L 98.218409 101.476226 
L 100.2475 101.476226 
L 100.2475 100.147925 
L 102.276591 100.147925 
L 102.276591 97.491321 
L 104.305682 97.491321 
L 104.305682 107.453585 
L 106.334773 107.453585 
L 106.334773 98.819623 
L 108.363864 98.819623 
L 108.363864 100.147925 
L 110.392955 100.147925 
L 110.392955 98.819623 
L 112.422045 98.819623 
L 112.422045 100.147925 
L 114.451136 100.147925 
L 114.451136 109.446038 
L 116.480227 109.446038 
L 116.480227 102.804528 
L 118.509318 102.804528 
L 118.509318 104.796981 
L 120.538409 104.796981 
L 120.538409 102.140377 
L 122.5675 102.140377 
L 122.5675 103.468679 
L 126.625682 103.468679 
L 126.625682 99.483774 
L 128.654773 99.483774 
L 128.654773 98.819623 
L 130.683864 98.819623 
L 130.683864 103.468679 
L 132.712955 103.468679 
L 132.712955 95.498868 
L 134.742045 95.498868 
L 134.742045 102.140377 
L 136.771136 102.140377 
L 136.771136 101.476226 
L 138.800227 101.476226 
L 138.800227 106.789434 
L 140.829318 106.789434 
L 140.829318 106.125283 
L 142.858409 106.125283 
L 142.858409 99.483774 
L 144.8875 99.483774 
L 144.8875 100.147925 
L 146.916591 100.147925 
L 146.916591 96.82717 
L 148.945682 96.82717 
L 148.945682 101.476226 
L 150.974773 101.476226 
L 150.974773 102.140377 
L 153.003864 102.140377 
L 153.003864 107.453585 
L 155.032955 107.453585 
L 155.032955 105.461132 
L 157.062045 105.461132 
L 157.062045 101.476226 
L 159.091136 101.476226 
L 159.091136 100.147925 
L 161.120227 100.147925 
L 161.120227 99.483774 
L 163.149318 99.483774 
L 163.149318 104.796981 
L 165.178409 104.796981 
L 165.178409 98.819623 
L 167.2075 98.819623 
L 167.2075 104.13283 
L 169.236591 104.13283 
L 169.236591 101.476226 
L 171.265682 101.476226 
L 171.265682 104.13283 
L 173.294773 104.13283 
L 173.294773 96.163019 
L 175.323864 96.163019 
L 175.323864 103.468679 
L 177.352955 103.468679 
L 177.352955 100.147925 
L 179.382045 100.147925 
L 179.382045 102.804528 
L 181.411136 102.804528 
L 181.411136 104.796981 
L 183.440227 104.796981 
L 183.440227 94.170566 
L 185.469318 94.170566 
L 185.469318 91.513962 
L 187.498409 91.513962 
L 187.498409 88.193208 
L 189.5275 88.193208 
L 189.5275 88.857358 
L 191.556591 88.857358 
L 191.556591 84.208302 
L 193.585682 84.208302 
L 193.585682 72.917736 
L 195.614773 72.917736 
L 195.614773 69.596981 
L 197.643864 69.596981 
L 197.643864 65.612075 
L 199.672955 65.612075 
L 199.672955 50.336604 
L 201.702045 50.336604 
L 201.702045 38.381887 
L 203.731136 38.381887 
L 203.731136 23.770566 
L 205.760227 23.770566 
L 205.760227 27.755472 
L 207.789318 27.755472 
L 207.789318 17.129057 
L 209.818409 17.129057 
L 209.818409 12.48 
L 211.8475 12.48 
L 211.8475 13.144151 
L 213.876591 13.144151 
L 213.876591 26.42717 
L 215.905682 26.42717 
L 215.905682 29.747925 
L 217.934773 29.747925 
L 217.934773 32.404528 
L 219.963864 32.404528 
L 219.963864 42.366792 
L 221.992955 42.366792 
L 221.992955 45.687547 
L 224.022045 45.687547 
L 224.022045 66.940377 
L 226.051136 66.940377 
L 226.051136 68.93283 
L 228.080227 68.93283 
L 228.080227 87.529057 
L 230.109318 87.529057 
L 230.109318 86.864906 
L 232.138409 86.864906 
L 232.138409 102.804528 
L 234.1675 102.804528 
L 234.1675 103.468679 
L 236.196591 103.468679 
L 236.196591 110.77434 
L 238.225682 110.77434 
L 238.225682 109.446038 
L 240.254773 109.446038 
L 240.254773 113.430943 
L 242.283864 113.430943 
L 242.283864 115.423396 
L 244.312955 115.423396 
L 244.312955 116.087547 
L 246.342045 116.087547 
L 246.342045 118.08 
L 246.342045 118.08 
" style="fill:none;stroke:#1f77b4;stroke-linejoin:miter;"/>
   </g>
   <g id="patch_4">
    <path d="M 33.2875 118.08 
L 33.2875 7.2 
" style="fill:none;stroke:#000000;stroke-linecap:square;stroke-linejoin:miter;stroke-width:0.8;"/>
   </g>
   <g id="patch_5">
    <path d="M 256.4875 118.08 
L 256.4875 7.2 
" style="fill:none;stroke:#000000;stroke-linecap:square;stroke-linejoin:miter;stroke-width:0.8;"/>
   </g>
   <g id="patch_6">
    <path d="M 33.2875 118.08 
L 256.4875 118.08 
" style="fill:none;stroke:#000000;stroke-linecap:square;stroke-linejoin:miter;stroke-width:0.8;"/>
   </g>
   <g id="patch_7">
    <path d="M 33.2875 7.2 
L 256.4875 7.2 
" style="fill:none;stroke:#000000;stroke-linecap:square;stroke-linejoin:miter;stroke-width:0.8;"/>
   </g>
  </g>
 </g>
 <defs>
  <clipPath id="p690259f09d">
   <rect height="110.88" width="223.2" x="33.2875" y="7.2"/>
  </clipPath>
 </defs>
</svg>
