<?xml version="1.0" encoding="utf-8" standalone="no"?>
<!DOCTYPE svg PUBLIC "-//W3C//DTD SVG 1.1//EN"
  "http://www.w3.org/Graphics/SVG/1.1/DTD/svg11.dtd">
<svg height="141.958125pt" version="1.1" viewBox="0 0 263.6875 141.958125" width="263.6875pt" xmlns="http://www.w3.org/2000/svg" xmlns:xlink="http://www.w3.org/1999/xlink">
 <metadata>
  <rdf:RDF xmlns:cc="http://creativecommons.org/ns#" xmlns:dc="http://purl.org/dc/elements/1.1/" xmlns:rdf="http://www.w3.org/1999/02/22-rdf-syntax-ns#">
   <cc:Work>
    <dc:type rdf:resource="http://purl.org/dc/dcmitype/StillImage"/>
    <dc:date>2021-07-21T12:05:22.856372</dc:date>
    <dc:format>image/svg+xml</dc:format>
    <dc:creator>
     <cc:Agent>
      <dc:title>Matplotlib v3.4.2, https://matplotlib.org/</dc:title>
     </cc:Agent>
    </dc:creator>
   </cc:Work>
  </rdf:RDF>
 </metadata>
 <defs>
  <style type="text/css">*{stroke-linecap:butt;stroke-linejoin:round;}</style>
 </defs>
 <g id="figure_1">
  <g id="patch_1">
   <path d="M 0 141.958125 
L 263.6875 141.958125 
L 263.6875 0 
L 0 0 
z
" style="fill:#ffffff;"/>
  </g>
  <g id="axes_1">
   <g id="patch_2">
    <path d="M 33.2875 118.08 
L 256.4875 118.08 
L 256.4875 7.2 
L 33.2875 7.2 
z
" style="fill:#ffffff;"/>
   </g>
   <g id="matplotlib.axis_1">
    <g id="xtick_1">
     <g id="line2d_1">
      <defs>
       <path d="M 0 0 
L 0 3.5 
" id="m631b282ae4" style="stroke:#000000;stroke-width:0.8;"/>
      </defs>
      <g>
       <use style="stroke:#000000;stroke-width:0.8;" x="43.257136" xlink:href="#m631b282ae4" y="118.08"/>
      </g>
     </g>
     <g id="text_1">
      <!-- 0 -->
      <g transform="translate(40.075886 132.678438)scale(0.1 -0.1)">
       <defs>
        <path d="M 2034 4250 
Q 1547 4250 1301 3770 
Q 1056 3291 1056 2328 
Q 1056 1369 1301 889 
Q 1547 409 2034 409 
Q 2525 409 2770 889 
Q 3016 1369 3016 2328 
Q 3016 3291 2770 3770 
Q 2525 4250 2034 4250 
z
M 2034 4750 
Q 2819 4750 3233 4129 
Q 3647 3509 3647 2328 
Q 3647 1150 3233 529 
Q 2819 -91 2034 -91 
Q 1250 -91 836 529 
Q 422 1150 422 2328 
Q 422 3509 836 4129 
Q 1250 4750 2034 4750 
z
" id="DejaVuSans-30" transform="scale(0.015625)"/>
       </defs>
       <use xlink:href="#DejaVuSans-30"/>
      </g>
     </g>
    </g>
    <g id="xtick_2">
     <g id="line2d_2">
      <g>
       <use style="stroke:#000000;stroke-width:0.8;" x="98.81097" xlink:href="#m631b282ae4" y="118.08"/>
      </g>
     </g>
     <g id="text_2">
      <!-- 1 -->
      <g transform="translate(95.62972 132.678438)scale(0.1 -0.1)">
       <defs>
        <path d="M 794 531 
L 1825 531 
L 1825 4091 
L 703 3866 
L 703 4441 
L 1819 4666 
L 2450 4666 
L 2450 531 
L 3481 531 
L 3481 0 
L 794 0 
L 794 531 
z
" id="DejaVuSans-31" transform="scale(0.015625)"/>
       </defs>
       <use xlink:href="#DejaVuSans-31"/>
      </g>
     </g>
    </g>
    <g id="xtick_3">
     <g id="line2d_3">
      <g>
       <use style="stroke:#000000;stroke-width:0.8;" x="154.364805" xlink:href="#m631b282ae4" y="118.08"/>
      </g>
     </g>
     <g id="text_3">
      <!-- 2 -->
      <g transform="translate(151.183555 132.678438)scale(0.1 -0.1)">
       <defs>
        <path d="M 1228 531 
L 3431 531 
L 3431 0 
L 469 0 
L 469 531 
Q 828 903 1448 1529 
Q 2069 2156 2228 2338 
Q 2531 2678 2651 2914 
Q 2772 3150 2772 3378 
Q 2772 3750 2511 3984 
Q 2250 4219 1831 4219 
Q 1534 4219 1204 4116 
Q 875 4013 500 3803 
L 500 4441 
Q 881 4594 1212 4672 
Q 1544 4750 1819 4750 
Q 2544 4750 2975 4387 
Q 3406 4025 3406 3419 
Q 3406 3131 3298 2873 
Q 3191 2616 2906 2266 
Q 2828 2175 2409 1742 
Q 1991 1309 1228 531 
z
" id="DejaVuSans-32" transform="scale(0.015625)"/>
       </defs>
       <use xlink:href="#DejaVuSans-32"/>
      </g>
     </g>
    </g>
    <g id="xtick_4">
     <g id="line2d_4">
      <g>
       <use style="stroke:#000000;stroke-width:0.8;" x="209.918639" xlink:href="#m631b282ae4" y="118.08"/>
      </g>
     </g>
     <g id="text_4">
      <!-- 3 -->
      <g transform="translate(206.737389 132.678438)scale(0.1 -0.1)">
       <defs>
        <path d="M 2597 2516 
Q 3050 2419 3304 2112 
Q 3559 1806 3559 1356 
Q 3559 666 3084 287 
Q 2609 -91 1734 -91 
Q 1441 -91 1130 -33 
Q 819 25 488 141 
L 488 750 
Q 750 597 1062 519 
Q 1375 441 1716 441 
Q 2309 441 2620 675 
Q 2931 909 2931 1356 
Q 2931 1769 2642 2001 
Q 2353 2234 1838 2234 
L 1294 2234 
L 1294 2753 
L 1863 2753 
Q 2328 2753 2575 2939 
Q 2822 3125 2822 3475 
Q 2822 3834 2567 4026 
Q 2313 4219 1838 4219 
Q 1578 4219 1281 4162 
Q 984 4106 628 3988 
L 628 4550 
Q 988 4650 1302 4700 
Q 1616 4750 1894 4750 
Q 2613 4750 3031 4423 
Q 3450 4097 3450 3541 
Q 3450 3153 3228 2886 
Q 3006 2619 2597 2516 
z
" id="DejaVuSans-33" transform="scale(0.015625)"/>
       </defs>
       <use xlink:href="#DejaVuSans-33"/>
      </g>
     </g>
    </g>
   </g>
   <g id="matplotlib.axis_2">
    <g id="ytick_1">
     <g id="line2d_5">
      <defs>
       <path d="M 0 0 
L -3.5 0 
" id="ma7b2b71a1d" style="stroke:#000000;stroke-width:0.8;"/>
      </defs>
      <g>
       <use style="stroke:#000000;stroke-width:0.8;" x="33.2875" xlink:href="#ma7b2b71a1d" y="118.08"/>
      </g>
     </g>
     <g id="text_5">
      <!-- 0 -->
      <g transform="translate(19.925 121.879219)scale(0.1 -0.1)">
       <use xlink:href="#DejaVuSans-30"/>
      </g>
     </g>
    </g>
    <g id="ytick_2">
     <g id="line2d_6">
      <g>
       <use style="stroke:#000000;stroke-width:0.8;" x="33.2875" xlink:href="#ma7b2b71a1d" y="87.021176"/>
      </g>
     </g>
     <g id="text_6">
      <!-- 50 -->
      <g transform="translate(13.5625 90.820395)scale(0.1 -0.1)">
       <defs>
        <path d="M 691 4666 
L 3169 4666 
L 3169 4134 
L 1269 4134 
L 1269 2991 
Q 1406 3038 1543 3061 
Q 1681 3084 1819 3084 
Q 2600 3084 3056 2656 
Q 3513 2228 3513 1497 
Q 3513 744 3044 326 
Q 2575 -91 1722 -91 
Q 1428 -91 1123 -41 
Q 819 9 494 109 
L 494 744 
Q 775 591 1075 516 
Q 1375 441 1709 441 
Q 2250 441 2565 725 
Q 2881 1009 2881 1497 
Q 2881 1984 2565 2268 
Q 2250 2553 1709 2553 
Q 1456 2553 1204 2497 
Q 953 2441 691 2322 
L 691 4666 
z
" id="DejaVuSans-35" transform="scale(0.015625)"/>
       </defs>
       <use xlink:href="#DejaVuSans-35"/>
       <use x="63.623047" xlink:href="#DejaVuSans-30"/>
      </g>
     </g>
    </g>
    <g id="ytick_3">
     <g id="line2d_7">
      <g>
       <use style="stroke:#000000;stroke-width:0.8;" x="33.2875" xlink:href="#ma7b2b71a1d" y="55.962353"/>
      </g>
     </g>
     <g id="text_7">
      <!-- 100 -->
      <g transform="translate(7.2 59.761572)scale(0.1 -0.1)">
       <use xlink:href="#DejaVuSans-31"/>
       <use x="63.623047" xlink:href="#DejaVuSans-30"/>
       <use x="127.246094" xlink:href="#DejaVuSans-30"/>
      </g>
     </g>
    </g>
    <g id="ytick_4">
     <g id="line2d_8">
      <g>
       <use style="stroke:#000000;stroke-width:0.8;" x="33.2875" xlink:href="#ma7b2b71a1d" y="24.903529"/>
      </g>
     </g>
     <g id="text_8">
      <!-- 150 -->
      <g transform="translate(7.2 28.702748)scale(0.1 -0.1)">
       <use xlink:href="#DejaVuSans-31"/>
       <use x="63.623047" xlink:href="#DejaVuSans-35"/>
       <use x="127.246094" xlink:href="#DejaVuSans-30"/>
      </g>
     </g>
    </g>
   </g>
   <g id="patch_3">
    <path clip-path="url(#pe431f95d56)" d="M 43.432955 118.08 
L 43.432955 105.656471 
L 45.462045 105.656471 
L 45.462045 102.550588 
L 47.491136 102.550588 
L 47.491136 100.065882 
L 49.520227 100.065882 
L 49.520227 103.171765 
L 51.549318 103.171765 
L 51.549318 102.550588 
L 53.578409 102.550588 
L 53.578409 103.792941 
L 55.6075 103.792941 
L 55.6075 101.308235 
L 57.636591 101.308235 
L 57.636591 105.035294 
L 61.694773 105.035294 
L 61.694773 101.929412 
L 63.723864 101.929412 
L 63.723864 96.96 
L 65.752955 96.96 
L 65.752955 103.792941 
L 67.782045 103.792941 
L 67.782045 102.550588 
L 69.811136 102.550588 
L 69.811136 106.277647 
L 71.840227 106.277647 
L 71.840227 102.550588 
L 73.869318 102.550588 
L 73.869318 100.687059 
L 75.898409 100.687059 
L 75.898409 103.171765 
L 77.9275 103.171765 
L 77.9275 109.383529 
L 79.956591 109.383529 
L 79.956591 98.202353 
L 81.985682 98.202353 
L 81.985682 105.035294 
L 84.014773 105.035294 
L 84.014773 100.687059 
L 86.043864 100.687059 
L 86.043864 105.035294 
L 88.072955 105.035294 
L 88.072955 103.792941 
L 90.102045 103.792941 
L 90.102045 105.035294 
L 92.131136 105.035294 
L 92.131136 100.065882 
L 94.160227 100.065882 
L 94.160227 107.52 
L 96.189318 107.52 
L 96.189318 102.550588 
L 98.218409 102.550588 
L 98.218409 98.202353 
L 100.2475 98.202353 
L 100.2475 106.277647 
L 102.276591 106.277647 
L 102.276591 102.550588 
L 104.305682 102.550588 
L 104.305682 108.141176 
L 106.334773 108.141176 
L 106.334773 99.444706 
L 108.363864 99.444706 
L 108.363864 102.550588 
L 110.392955 102.550588 
L 110.392955 101.308235 
L 112.422045 101.308235 
L 112.422045 101.929412 
L 114.451136 101.929412 
L 114.451136 99.444706 
L 116.480227 99.444706 
L 116.480227 107.52 
L 118.509318 107.52 
L 118.509318 98.823529 
L 120.538409 98.823529 
L 120.538409 101.929412 
L 122.5675 101.929412 
L 122.5675 99.444706 
L 124.596591 99.444706 
L 124.596591 105.656471 
L 126.625682 105.656471 
L 126.625682 108.141176 
L 128.654773 108.141176 
L 128.654773 104.414118 
L 130.683864 104.414118 
L 130.683864 101.929412 
L 132.712955 101.929412 
L 132.712955 102.550588 
L 134.742045 102.550588 
L 134.742045 105.656471 
L 136.771136 105.656471 
L 136.771136 104.414118 
L 140.829318 104.414118 
L 140.829318 97.581176 
L 142.858409 97.581176 
L 142.858409 96.96 
L 144.8875 96.96 
L 144.8875 101.929412 
L 146.916591 101.929412 
L 146.916591 103.171765 
L 148.945682 103.171765 
L 148.945682 98.202353 
L 150.974773 98.202353 
L 150.974773 101.929412 
L 153.003864 101.929412 
L 153.003864 106.277647 
L 155.032955 106.277647 
L 155.032955 105.035294 
L 157.062045 105.035294 
L 157.062045 106.277647 
L 159.091136 106.277647 
L 159.091136 103.792941 
L 161.120227 103.792941 
L 161.120227 96.338824 
L 163.149318 96.338824 
L 163.149318 100.065882 
L 165.178409 100.065882 
L 165.178409 105.035294 
L 167.2075 105.035294 
L 167.2075 103.171765 
L 169.236591 103.171765 
L 169.236591 96.338824 
L 171.265682 96.338824 
L 171.265682 100.065882 
L 173.294773 100.065882 
L 173.294773 106.277647 
L 175.323864 106.277647 
L 175.323864 103.171765 
L 177.352955 103.171765 
L 177.352955 101.929412 
L 179.382045 101.929412 
L 179.382045 100.065882 
L 181.411136 100.065882 
L 181.411136 105.035294 
L 183.440227 105.035294 
L 183.440227 97.581176 
L 185.469318 97.581176 
L 185.469318 91.990588 
L 187.498409 91.990588 
L 187.498409 87.642353 
L 189.5275 87.642353 
L 189.5275 80.809412 
L 191.556591 80.809412 
L 191.556591 70.870588 
L 193.585682 70.870588 
L 193.585682 62.174118 
L 195.614773 62.174118 
L 195.614773 69.628235 
L 197.643864 69.628235 
L 197.643864 57.825882 
L 199.672955 57.825882 
L 199.672955 41.054118 
L 201.702045 41.054118 
L 201.702045 31.115294 
L 203.731136 31.115294 
L 203.731136 22.418824 
L 205.760227 22.418824 
L 205.760227 14.343529 
L 207.789318 14.343529 
L 207.789318 12.48 
L 209.818409 12.48 
L 209.818409 29.251765 
L 211.8475 29.251765 
L 211.8475 25.524706 
L 213.876591 25.524706 
L 213.876591 44.16 
L 215.905682 44.16 
L 215.905682 32.357647 
L 217.934773 32.357647 
L 217.934773 57.825882 
L 219.963864 57.825882 
L 219.963864 70.870588 
L 221.992955 70.870588 
L 221.992955 73.976471 
L 224.022045 73.976471 
L 224.022045 80.188235 
L 226.051136 80.188235 
L 226.051136 86.4 
L 228.080227 86.4 
L 228.080227 101.308235 
L 230.109318 101.308235 
L 230.109318 101.929412 
L 232.138409 101.929412 
L 232.138409 104.414118 
L 234.1675 104.414118 
L 234.1675 111.247059 
L 236.196591 111.247059 
L 236.196591 111.868235 
L 238.225682 111.868235 
L 238.225682 113.731765 
L 240.254773 113.731765 
L 240.254773 116.216471 
L 242.283864 116.216471 
L 242.283864 117.458824 
L 244.312955 117.458824 
L 244.312955 116.837647 
L 246.342045 116.837647 
L 246.342045 118.08 
L 246.342045 118.08 
" style="fill:none;stroke:#1f77b4;stroke-linejoin:miter;"/>
   </g>
   <g id="patch_4">
    <path d="M 33.2875 118.08 
L 33.2875 7.2 
" style="fill:none;stroke:#000000;stroke-linecap:square;stroke-linejoin:miter;stroke-width:0.8;"/>
   </g>
   <g id="patch_5">
    <path d="M 256.4875 118.08 
L 256.4875 7.2 
" style="fill:none;stroke:#000000;stroke-linecap:square;stroke-linejoin:miter;stroke-width:0.8;"/>
   </g>
   <g id="patch_6">
    <path d="M 33.2875 118.08 
L 256.4875 118.08 
" style="fill:none;stroke:#000000;stroke-linecap:square;stroke-linejoin:miter;stroke-width:0.8;"/>
   </g>
   <g id="patch_7">
    <path d="M 33.2875 7.2 
L 256.4875 7.2 
" style="fill:none;stroke:#000000;stroke-linecap:square;stroke-linejoin:miter;stroke-width:0.8;"/>
   </g>
  </g>
 </g>
 <defs>
  <clipPath id="pe431f95d56">
   <rect height="110.88" width="223.2" x="33.2875" y="7.2"/>
  </clipPath>
 </defs>
</svg>
